<?xml version="1.0" encoding="UTF-8" standalone="no"?>
<svg
   xmlns:dc="http://purl.org/dc/elements/1.1/"
   xmlns:cc="http://creativecommons.org/ns#"
   xmlns:rdf="http://www.w3.org/1999/02/22-rdf-syntax-ns#"
   xmlns:svg="http://www.w3.org/2000/svg"
   xmlns="http://www.w3.org/2000/svg"
   id="svg14"
   preserveAspectRatio="xMidYMid meet"
   viewBox="0 0 82.000000 35.000000"
   height="35.000000pt"
   width="82.000000pt"
   version="1.0">
  <metadata
     id="metadata20">
    <rdf:RDF>
      <cc:Work
         rdf:about="">
        <dc:format>image/svg+xml</dc:format>
        <dc:type
           rdf:resource="http://purl.org/dc/dcmitype/StillImage" />
        <dc:title></dc:title>
      </cc:Work>
    </rdf:RDF>
  </metadata>
  <defs
     id="defs18" />
  <g
     style="fill:#4169ff;fill-opacity:1"
     id="g12"
     stroke="none"
     fill="#000000"
     transform="translate(0.000000,35.000000) scale(0.100000,-0.100000)">
    <path
       style="fill:#4169ff;fill-opacity:1"
       id="path2"
       d="M510 317 c0 -53 -7 -57 -88 -57 -74 0 -77 1 -113 36 -26 25 -41 34 -51 28 -26 -16 -238 -241 -238 -253 0 -31 45 -1 140 94 l105 105 110 -110 110 -110 151 0 c120 0 154 3 164 14 15 19 10 27 -74 119 -65 71 -72 76 -115 79 -44 3 -46 4 -51 38 -4 27 -10 36 -27 38 -19 3 -23 -1 -23 -21z" />
    <path
       style="fill:#4169ff;fill-opacity:1"
       id="path4"
       d="M202 118 c2 -15 10 -23 23 -23 30 0 27 39 -3 43 -20 3 -23 0 -20 -20z" />
    <path
       style="fill:#4169ff;fill-opacity:1"
       id="path6"
       d="M284 125 c-4 -9 -2 -21 4 -27 15 -15 44 -1 40 19 -4 23 -36 29 -44 8z" />
    <path
       style="fill:#4169ff;fill-opacity:1"
       id="path8"
       d="M204 46 c-7 -19 3 -36 22 -36 10 0 14 8 12 22 -4 26 -26 36 -34 14z" />
    <path
       style="fill:#4169ff;fill-opacity:1"
       id="path10"
       d="M290 50 c-18 -11 -4 -42 17 -38 10 2 19 10 21 19 4 19 -19 31 -38 19z" />
  </g>
</svg>
