<?xml version="1.0" encoding="UTF-8" standalone="no"?>
<svg
   xmlns:dc="http://purl.org/dc/elements/1.1/"
   xmlns:cc="http://creativecommons.org/ns#"
   xmlns:rdf="http://www.w3.org/1999/02/22-rdf-syntax-ns#"
   xmlns:svg="http://www.w3.org/2000/svg"
   xmlns="http://www.w3.org/2000/svg"
   width="210mm"
   height="297mm"
   viewBox="0 0 210 297"
   version="1.1"
   id="svg8">
  <defs
     id="defs2" />
  <metadata
     id="metadata5">
    <rdf:RDF>
      <cc:Work
         rdf:about="">
        <dc:format>image/svg+xml</dc:format>
        <dc:type
           rdf:resource="http://purl.org/dc/dcmitype/StillImage" />
        <dc:title></dc:title>
      </cc:Work>
    </rdf:RDF>
  </metadata>
  <g
     id="layer1">
    <g
       aria-label="Cafe"
       id="text849"
       style="font-size:38.1px;line-height:0;font-family:'Staccato222 BT';-inkscape-font-specification:'Staccato222 BT, Normal';letter-spacing:1.15358px;word-spacing:0px;stroke-width:0.264583">
      <path
         d="m 80.196769,47.443573 q 0.204639,0.130225 0.260449,0.223242 0.07441,0.09302 0.09302,0.241846 0,0.09302 -0.05581,0.279053 -0.03721,0.167431 -0.111621,0.37207 -0.130224,0.297656 -0.334863,0.558105 -0.186035,0.26045 -0.446484,0.502295 l -0.31626,0.111621 -0.186035,0.446485 q -1.878955,1.153418 -3.553272,1.74873 -1.655713,0.613916 -2.957959,0.613916 -0.502294,0 -0.967382,-0.07441 -0.465088,-0.05581 -0.892969,-0.186035 l -0.390674,-0.409277 -0.353467,0.111621 -0.446484,-0.465088 -0.502295,0.03721 q -1.190625,-0.409277 -2.362646,-1.767334 -1.172022,-1.37666 -1.748731,-3.106787 l 0.07441,-0.427881 -0.260449,-0.297656 0.03721,-0.37207 -0.223242,-0.167432 -0.09302,-0.558105 0.09302,-0.353467 -0.204639,-0.186035 0.204639,-0.651123 -0.241846,-0.186036 0.07441,-0.613916 -0.148828,-0.353466 q 0.05581,-1.971973 0.260449,-3.162598 0.223243,-1.209228 0.576709,-1.544092 l -0.03721,-0.837158 0.186036,-0.762744 0.241845,-0.279053 q 0.167432,-1.041796 1.134815,-2.697509 0.967382,-1.655713 2.511474,-3.497461 l 0.539502,-0.427881 0.502295,-0.68833 0.799951,-0.520898 0.297656,-0.130225 0.148828,-0.297656 q 1.413868,-1.265039 2.716114,-1.897559 1.302246,-0.651123 3.962548,-1.079004 l 0.372071,0.07442 0.651123,-0.148829 0.725537,0.31626 0.223242,0.297656 0.651123,0.148829 0.68833,0.502294 v 0.223243 l 0.37207,0.260449 q 0.223242,0.911572 0.31626,2.046386 0.111621,1.116211 0.111621,2.530078 0,0.799952 -0.07441,1.432471 -0.05581,0.63252 -0.204639,1.246436 l -0.223242,0.297656 0.07441,0.446484 q -0.186035,0.892969 -0.632519,2.176611 -0.446485,1.265039 -1.227832,3.125391 l -0.111621,0.465088 -0.539502,0.297656 -0.409278,-0.148828 -0.316259,0.334863 -0.762744,0.167432 -0.26045,-0.167432 h -0.353466 l -0.03721,-0.799951 0.241845,-0.260449 -0.204638,-0.427881 q 0.0186,-0.09302 0.0186,-0.297656 0.05581,-2.399854 0.409277,-3.088184 l -0.03721,-0.260449 0.26045,-0.502295 -0.07441,-0.520898 q 0.223242,-0.539502 0.42788,-1.190625 0.223243,-0.651123 0.409278,-1.488281 l 0.911572,-0.799952 0.204639,-1.283642 -0.07441,-0.613916 q -0.353467,-0.353467 -0.725538,-0.539502 -0.37207,-0.204639 -0.855761,-0.31626 l -0.186035,-0.334863 -1.358057,0.03721 -0.390674,-0.148828 -0.297656,0.297656 q -0.427881,0.07441 -0.818555,0.186035 -0.37207,0.111621 -0.74414,0.279053 l -0.353467,-0.148828 -0.483691,0.260449 -0.07441,0.279053 -0.892969,0.799951 h -0.260449 l -0.111622,0.37207 q -0.42788,0.483692 -0.837158,0.94878 -0.390673,0.446484 -0.762744,0.874365 l -0.223242,0.241845 0.03721,0.297657 q -1.079004,1.711523 -1.674316,3.702099 -0.576709,1.971973 -0.725537,4.483447 l -0.241846,0.576709 0.279053,0.465088 q 0.05581,0.63252 0.130224,1.227832 0.09302,0.595313 0.204639,1.134814 l -0.07441,0.520899 0.353467,0.502295 q 0.07441,0.148828 0.409277,0.799951 0.334863,0.632519 0.502295,1.041797 v 0.669726 l 0.558105,0.31626 q 0.576709,0.855762 1.767334,1.488281 1.209229,0.63252 2.195215,0.63252 0.334863,0 1.172021,-0.167432 0.837159,-0.167432 1.358057,-0.167432 l 0.186035,0.111622 0.68833,-0.651123 0.63252,-0.148829 0.390674,-0.390673 0.762744,-0.297657 0.539502,0.03721 0.148828,-0.446484 z"
         style="stroke-width:0.264583"
         id="path896" />
      <path
         d="m 86.075641,44.746064 q -0.353467,0.09302 -0.576709,0.502294 -0.241845,0.409278 -0.334863,0.409278 -0.09302,-0.0186 -0.167432,-0.07441 -0.07441,-0.07441 -0.130224,-0.07441 -0.05581,0 -0.09302,0.03721 -0.05581,0.0186 -0.186035,0.148828 l -0.223242,0.260449 q -0.186035,0.167432 -0.483692,0.297656 -0.316259,0.111621 -0.390673,0.279053 l -0.297657,0.186035 -0.279052,0.260449 -0.31626,0.241846 q -0.111621,0.05581 -0.204639,0.09302 -0.111621,0.0186 -0.204638,0.0186 -0.09302,0 -0.130225,0 -0.05581,-0.0186 -0.130225,-0.03721 l -0.07441,-0.186035 q 0,-0.31626 0.09302,-0.502295 0.09302,-0.186035 0.279053,-0.260449 l -0.03721,-0.427881 q 0.148828,-0.130225 0.353466,-0.31626 0.186036,-0.186035 0.558106,-0.558105 l 0.130224,-0.427881 h 0.148829 q 0.167431,0 0.279052,-0.05581 0.09302,-0.07441 0.167432,-0.241845 l 0.204639,-0.334864 0.558105,-0.241845 q 0.167432,-0.279053 0.353467,-0.502295 0.186035,-0.223242 0.37207,-0.372071 0.390674,-0.316259 0.63252,-0.502294 0.260449,-0.204639 0.483691,-0.334864 l 0.223242,-0.07441 q 0.07441,-0.186035 0.223242,-0.37207 0.167432,-0.204639 0.539502,-0.539502 l 0.613916,-0.502295 q 0.223242,-0.260449 0.465088,-0.520898 0.241846,-0.260449 0.558106,-0.576709 l 0.334863,-0.07441 v -0.279053 l 1.37666,-1.023193 0.483691,-0.297657 q 0.09302,-0.111621 0.204639,-0.186035 0.111621,-0.09302 0.279053,-0.167431 l 0.297656,-0.334864 0.223242,-0.148828 q 0.167432,-0.241845 0.37207,-0.409277 0.204639,-0.167432 0.502295,-0.279053 l 0.186036,-0.07441 0.167431,-0.279053 q 0.483692,-0.37207 1.339453,-0.948779 0.297656,-0.204639 0.446485,-0.297656 l 0.502294,-0.31626 q 0.204639,-0.111621 0.353467,-0.167431 0.148828,-0.05581 0.241846,-0.05581 0.130225,0 0.279053,-0.09302 0.148828,-0.09302 0.223242,-0.09302 0.03721,0 0.204639,0.0186 0.186035,0.0186 0.279052,0.0186 0.297656,0 0.595313,0.186035 0.297656,0.186035 0.297656,0.31626 0,0.0186 -0.03721,0.07441 -0.03721,0.05581 -0.05581,0.111621 0.03721,0.0186 0.09302,0.07441 0.07441,0.03721 0.07441,0.07441 0,0.260449 -0.465088,0.762744 -0.446484,0.502295 -1.134814,0.874365 l -0.279053,0.297657 q 0,0.167431 -0.781348,0.818554 -0.483691,0.409278 -0.781347,0.669727 l -0.297656,0.204638 -0.26045,0.334864 -0.353466,0.297656 -0.372071,0.427881 -0.353467,0.186035 -0.111621,0.223242 -0.539502,0.539502 -0.37207,0.427881 -0.390674,0.148828 q -0.260449,0.37207 -0.595312,0.781348 -0.31626,0.390673 -0.68833,0.818554 l -0.651123,0.576709 -0.576709,0.576709 q -0.03721,0.148828 -0.130225,0.297656 -0.09302,0.148829 -0.241845,0.297657 l -0.223243,0.68833 q 0.07441,0.03721 0.148828,0.03721 0.0186,0 0.09302,-0.0186 0.07441,-0.0186 0.204639,-0.05581 l 0.427881,-0.297657 0.37207,-0.130224 0.223242,-0.186035 0.353467,-0.409278 0.186035,-0.09302 0.31626,-0.03721 q 0.05581,-0.279053 0.353467,-0.409278 0.130224,-0.05581 0.167431,-0.07441 l 0.111621,-0.279052 0.427881,-0.297657 q 0.334863,-0.297656 0.725537,-0.613916 0.409277,-0.334863 0.911572,-0.68833 l 0.613916,-0.669726 0.799952,-0.68833 q 0.279052,-0.353467 0.68833,-0.520899 0.42788,-0.167431 0.985986,-0.167431 0.279053,0 0.502295,0.297656 0.223242,0.297656 0.223242,0.725537 v 0.07441 l -0.130225,0.31626 0.05581,0.186035 -0.05581,0.948779 -0.07441,0.353467 0.130225,0.260449 0.03721,0.539502 q 0.167432,0.595313 0.520898,0.911572 0.353467,0.297657 0.874366,0.297657 0.279052,0 0.818554,-0.409278 0.558109,-0.409277 0.558109,-0.613916 0,-0.05581 0.44648,-0.241845 0.37207,-0.148828 0.61392,-0.26045 l 0.42788,-0.483691 q 0.24184,-0.03721 0.39067,-0.111621 0.14883,-0.07441 0.26045,-0.241846 l 0.22324,-0.186035 q 0.0744,-0.0186 0.13023,-0.0186 0.0744,-0.0186 0.13022,-0.0186 0.18604,0 0.27905,0.09302 0.11163,0.07441 0.14883,0.260449 v 0.09302 q 0,0.130225 -0.0558,0.26045 -0.0558,0.130224 -0.18603,0.297656 -0.20464,0.37207 -0.46509,0.669726 -0.24185,0.297657 -0.59531,0.576709 l -0.11162,0.409278 -0.40928,0.07441 q -0.14883,0.353467 -0.35347,0.558105 -0.20464,0.204639 -0.57671,0.31626 -0.14883,0.260449 -0.37207,0.446484 -0.22324,0.167432 -0.483689,0.241846 -0.465088,0.595313 -0.985986,0.874365 -0.520899,0.279053 -1.190625,0.279053 -1.432471,0 -2.269629,-0.855762 -0.818555,-0.874365 -0.818555,-2.38125 0,-0.186035 0,-0.37207 0.0186,-0.204639 0.0186,-0.390674 -0.130225,0.03721 -0.279053,0.148828 -0.148828,0.111621 -0.279052,0.26045 l -0.334864,0.353466 -0.651123,0.372071 -0.465088,0.465088 q -0.186035,0.186035 -0.279052,0.241845 -0.07441,0.05581 -0.130225,0.05581 -0.07441,0 -0.148828,0 -0.07441,-0.0186 -0.130225,-0.03721 v 0.03721 q 0,0.558105 -1.041797,1.469677 -1.041796,0.892969 -2.492871,1.544092 -0.42788,0.279053 -0.818554,0.427881 -0.37207,0.148828 -0.706934,0.148828 -0.483691,0 -1.023193,-0.465088 -0.539502,-0.483691 -0.539502,-0.985986 0,-0.31626 0.130225,-0.706934 0.130224,-0.409277 0.409277,-0.967382 z"
         style="stroke-width:0.264583"
         id="path898" />
      <path
         d="m 107.32102,36.616327 q 0.31626,-0.316259 0.59531,-0.74414 0.27905,-0.427881 0.5395,-1.041797 l 0.61392,-1.134814 v -0.26045 q 0.093,-0.186035 0.26045,-0.539501 0.46508,-0.94878 0.68833,-1.339454 0.20463,-0.204638 0.26045,-0.279052 0.0558,-0.09302 0.0558,-0.186035 0,-0.03721 -0.0372,-0.148829 -0.0186,-0.111621 -0.0744,-0.279052 0.093,-0.279053 0.29766,-0.762744 0.33486,-0.874366 0.33486,-1.209229 0,-0.130224 -0.0558,-0.186035 -0.0372,-0.07441 -0.093,-0.07441 -0.37207,0 -1.0232,1.506885 -0.33486,0.818554 -0.57671,1.320849 l -0.29765,0.297656 q 0.0186,0.07442 0.0186,0.130225 0.0186,0.05581 0.0186,0.167432 0,0.186035 -0.093,0.316259 -0.093,0.130225 -0.37207,0.31626 v 0.37207 q -0.093,0.334864 -0.24185,0.725538 -0.14883,0.37207 -0.40928,0.911572 -0.11162,0.353467 -0.20463,0.818554 -0.093,0.465088 -0.20464,1.302246 z m 0.48369,15.943213 q 0.22324,-0.09302 0.29765,-0.204639 0.093,-0.09302 0.093,-0.223242 0,-0.03721 -0.0186,-0.09302 -0.0186,-0.05581 -0.0186,-0.09302 0,-0.0186 0.0186,-0.07441 0.14883,-0.446485 0.27905,-0.651123 0.22324,-0.09302 0.31626,-0.223242 0.11162,-0.148829 0.11162,-0.31626 0,0 -0.0186,-0.07441 -0.0186,-0.07441 -0.0186,-0.111621 0.11163,-0.297657 0.24185,-0.576709 0.13023,-0.279053 0.27905,-0.539502 0.16743,-0.07441 0.26045,-0.279053 0.093,-0.204639 0.20464,-0.204639 0.16743,0 0.24185,0.130225 0.093,0.111621 0.11162,0.390674 0,0.427881 -0.0558,0.818554 -0.0372,0.390674 -0.11162,0.744141 l -0.14883,0.241846 v 0.223242 q -0.0186,0.07441 -0.0558,0.167431 -0.0372,0.09302 -0.13023,0.279053 l -0.14883,0.204639 -0.0372,0.223242 q -0.0186,0.05581 -0.0744,0.297656 -0.0372,0.241846 -0.093,0.446485 l -0.22325,0.409277 q -0.0186,0.07441 -0.0744,0.260449 -0.46509,1.525488 -0.83716,2.158008 -0.0372,0.03721 -0.11162,0.07441 -0.18603,0.111621 -0.18603,0.204639 0,0.07441 0.0372,0.148828 -0.29765,0.68833 -0.70693,1.339453 -0.39067,0.669726 -0.89297,1.358056 -0.093,0.05581 -0.16743,0.130225 -0.0744,0.09302 -0.14883,0.260449 -0.70693,0.855762 -1.19062,1.172022 -0.46509,0.316259 -0.93018,0.316259 -0.83716,0 -1.24644,-0.520898 -0.39067,-0.520898 -0.5581,-1.953369 0,-0.03721 0,-0.09302 -0.0744,-0.595312 -0.0744,-0.855761 v -0.31626 l -0.0372,-0.297656 q 0,-0.204639 0.0186,-0.539502 0.0186,-0.334864 0.0186,-0.446485 l -0.0744,-0.316259 V 54.94079 q 0,-0.706934 0.0558,-1.544092 0.0372,-0.818555 0.16743,-2.418457 l 0.16743,-0.260449 -0.0744,-0.297656 v -0.576709 q 0,-0.967383 0.33486,-2.827735 0.33487,-1.860351 0.33487,-2.474267 0,-0.09302 -0.0186,-0.204639 0,-0.130224 -0.0186,-0.241846 l -0.37207,0.409278 v 0.111621 l -0.31626,0.31626 q -0.11162,0.223242 -0.24185,0.316259 -0.13022,0.09302 -0.31626,0.09302 -0.22324,0.03721 -0.68833,0.520898 -0.48369,0.483692 -0.985982,0.781348 l -0.353467,0.297656 q -0.05581,0.03721 -0.186035,0.111621 -0.204638,0.130225 -0.297656,0.130225 -0.31626,0 -0.465088,-0.03721 -0.148828,-0.05581 -0.148828,-0.130225 0,-0.07441 0.390674,-0.669726 0.390674,-0.595313 0.818554,-1.153418 l 0.502298,-0.613916 q 0.14883,-0.186035 0.70693,-0.576709 0.55811,-0.390674 0.78135,-0.855762 0.0744,-0.167431 0.18603,-0.334863 0.11162,-0.167432 0.22325,-0.31626 l 0.0186,-0.130224 q 0.31626,-0.390674 0.65112,-0.892969 0.35347,-0.520899 1.00459,-1.618506 l 0.24185,-0.837158 q 0.0744,-0.05581 0.11162,-0.130225 0.0372,-0.09302 0.0372,-0.167431 0,-0.05581 -0.0186,-0.09302 0,-0.03721 -0.0186,-0.05581 0.13022,-0.31626 0.18603,-0.483692 0.0558,-0.186035 0.093,-0.37207 0.13023,-0.130225 0.18604,-0.241846 0.0744,-0.130224 0.0744,-0.279053 0,-0.09302 -0.0186,-0.148828 -0.0186,-0.05581 -0.0186,-0.09302 1.19063,-3.776514 2.49287,-6.864697 1.30225,-3.088184 2.6417,-5.283398 v -0.07441 q 0,-0.130224 0.24185,-0.334863 0.22324,-0.186035 0.33486,-0.31626 0.0186,-0.0186 0.0744,-0.111621 0.18603,-0.297656 0.48369,-0.297656 0.0372,0 0.16743,0.0186 0.14883,0.0186 0.26045,0.0186 l 0.37207,-0.186035 h 0.16743 0.18604 q 0.0558,0 0.11162,0.0186 0.0744,0 0.14883,0.0186 0.13022,0.111621 0.18603,0.31626 0.0558,0.186035 0.0558,0.520898 l -0.0186,0.353467 q -0.0186,0.03721 -0.0558,0.111621 -0.13023,0.241846 -0.13023,0.334863 0,0.148828 0.35347,0.427881 0,0 0.0372,0.03721 0,0.07441 0.0372,0.260449 0.0372,0.297657 0.0372,0.372071 0,0.37207 -0.37207,2.306836 l -0.0186,0.111621 q -0.0744,0.07441 -0.11162,0.148828 -0.0372,0.05581 -0.0372,0.148828 0,0.07441 0,0.111621 0.0186,0.03721 0.0372,0.07441 -0.11163,0.576709 -0.4837,1.971973 -0.0744,0.316259 -0.13022,0.465088 -0.26045,0.334863 -0.37207,0.632519 -0.11162,0.297656 -0.11162,0.613916 -0.0744,0.502295 -0.22324,0.799951 -0.14883,0.279053 -0.42788,0.502295 l -0.26045,0.68833 -0.42788,0.539502 q -0.13023,0.63252 -0.37208,1.079004 -0.22324,0.446484 -0.5395,0.706933 L 108.8465,37.5279 q -0.0372,0.130224 -0.0744,0.279052 -0.0186,0.130225 -0.0372,0.297657 -0.20464,0.111621 -0.27905,0.223242 -0.0744,0.111621 -0.0744,0.279053 -0.20464,0.279052 -0.31626,0.465087 -0.093,0.167432 -0.13023,0.31626 l -0.16743,0.130225 -0.0372,0.297656 q -0.20463,0.204639 -0.35346,0.427881 -0.13023,0.204639 -0.24185,0.446484 -0.11162,0.186035 -0.20464,0.279053 -0.093,0.09302 -0.22324,0.148828 -0.0186,0.297656 -0.093,0.595313 -0.0744,0.279052 -0.20464,0.576709 -0.0186,0.03721 -0.0372,0.09302 -0.0372,0.130225 -0.0372,0.223242 v 0.148828 0.111621 q -0.11162,0.26045 -0.18603,0.576709 -0.0558,0.297657 -0.093,0.688331 -0.16743,0.223242 -0.26045,0.446484 -0.0744,0.223242 -0.0744,0.465088 0,0.05581 0.0186,0.148828 0.0186,0.09302 0.0186,0.148828 -0.0744,0.595312 -0.33486,1.785937 -0.0372,0.148829 -0.0372,0.186036 -0.093,0.316259 -0.26045,0.725537 -0.16743,0.409277 -0.16743,0.502295 0,0.03721 0.0186,0.130224 0.0372,0.07441 0.093,0.223242 -0.0372,0.558106 -0.093,0.855762 -0.0372,0.297656 -0.093,0.502295 l -0.14883,0.279053 0.14883,0.241845 q -0.093,1.060401 -0.13023,1.581299 -0.0372,0.539502 -0.0744,1.00459 -0.0558,0.148828 -0.093,0.260449 -0.0186,0.130225 -0.0186,0.223242 0.0186,0.09302 0.0372,0.167432 0.0186,0.07441 0.0744,0.241846 l 0.0186,0.818554 q 0,0.05581 -0.0186,0.111621 -0.0186,0.05581 -0.0186,0.07441 0,0.111621 0.0186,0.241846 0.0372,0.130225 0.13022,0.409277 0,0.03721 -0.0186,0.148829 -0.0186,0.111621 -0.0186,0.148828 0,0.130224 0.0186,0.223242 0.0372,0.111621 0.093,0.204639 l 0.0372,0.334863 q 0.16743,0 0.26045,-0.09302 0.093,-0.07441 0.13023,-0.260449 0.14883,-0.05581 0.22324,-0.148828 0.0744,-0.09302 0.0744,-0.186035 0,0 -0.0186,-0.07441 -0.0186,-0.05581 -0.0186,-0.111621 l 0.11162,-0.148829 q 0.22324,-0.03721 0.29765,-0.130224 0.0744,-0.07441 0.0744,-0.297656 0.39067,-0.502295 0.96738,-1.469678 l 0.093,-0.148828 0.31626,-0.390674 v -0.353467 z"
         style="stroke-width:0.264583"
         id="path900" />
      <path
         d="m 117.4787,39.778925 0.29766,-0.223242 q 0,-0.148828 0.14882,-0.446485 0.16744,-0.297656 0.16744,-0.613915 -0.0186,-0.26045 -0.0372,-0.297657 -0.0186,-0.03721 -0.13023,-0.05581 h -0.0744 l -0.29766,0.186035 -0.72553,0.651123 -0.68833,0.68833 -0.61392,0.892969 q -0.11162,0.204638 -0.18603,0.42788 -0.0744,0.204639 -0.0744,0.353467 0,0.03721 0.0186,0.05581 0.0372,0.0186 0.0558,0.0186 0.0558,0 0.11162,-0.0186 0.0558,-0.0186 0.16743,-0.09302 0.093,-0.0186 0.16743,-0.0186 0.0744,-0.0186 0.16743,-0.0186 0.0372,0 0.093,-0.0186 0.0558,-0.03721 0.16743,-0.167432 l 0.18604,-0.334863 0.31626,-0.31626 z m -5.04155,5.729883 -0.0372,-0.353467 -0.48369,0.353467 -0.27905,0.186035 -0.37207,0.297656 q -0.33487,0.186035 -0.4837,0.279053 -0.14882,0.09302 -0.27905,0.186035 l -0.22324,0.186035 -0.39067,0.204639 q -0.093,0.204638 -0.26045,0.316259 -0.18604,0.09302 -0.57671,0.09302 -0.18604,-0.0186 -0.22324,-0.05581 -0.0372,-0.05581 -0.0744,-0.279052 0.0372,-0.260449 0.13023,-0.372071 0.093,-0.130224 0.31626,-0.241845 v -0.390674 q 0.18603,-0.167432 0.37207,-0.37207 0.18603,-0.204639 0.42788,-0.502295 l 0.27905,-0.390674 0.26045,-0.111621 q 0.11162,-0.260449 0.29766,-0.409277 0.16743,-0.167432 0.50229,-0.31626 l 0.11162,-0.260449 0.5023,-0.297657 0.42788,-0.353466 q 0.0558,-0.03721 0.093,-0.111622 0.0372,-0.09302 0.0558,-0.223242 v -0.148828 l 0.18603,-0.353467 -0.0744,-0.223242 0.11162,-0.31626 q 0.13022,-0.669726 0.27905,-1.097607 0.16743,-0.446484 0.40928,-0.799951 l 0.26045,-0.148828 -0.0744,-0.223242 q 0.37207,-0.725537 0.94878,-1.395264 0.57671,-0.68833 1.78594,-1.767334 h 0.20464 l 0.14883,-0.167432 0.18603,-0.03721 0.11162,-0.260449 q 0.5023,-0.409277 0.94878,-0.576709 0.46509,-0.186035 1.00459,-0.186035 0.20464,0 0.31626,0.0186 0.11162,0 0.20464,0.0186 l 0.16743,0.07441 0.76275,0.241846 0.26044,0.334863 0.11163,0.03721 q 0.11162,0.297656 0.16743,0.520899 0.0558,0.223242 0.0558,0.316259 0,0.111621 -0.0186,0.186035 0,0.07442 -0.0186,0.111622 l 0.11162,0.279052 -0.0372,0.409278 -0.14882,0.502295 -0.26045,0.37207 -0.0744,0.427881 q -0.14882,0.260449 -0.37207,0.520898 -0.20464,0.260449 -0.5395,0.613916 l -0.13022,0.241846 q -0.44649,0.539502 -1.0604,1.116211 -0.61392,0.576709 -1.5627,1.320849 l -0.33486,0.111621 -0.11162,0.223242 -0.65113,0.427881 -0.27905,0.334864 q -0.0744,0.05581 -0.11162,0.111621 -0.0372,0.05581 -0.0372,0.111621 0,0.186035 0.0558,0.409277 0.0744,0.204639 0.22325,0.520899 l 0.18603,0.223242 0.11162,0.37207 q 0.46509,0.353467 0.89297,0.520898 0.42788,0.167432 0.85576,0.167432 0.26045,0 0.55811,-0.09302 0.29765,-0.09302 0.78135,-0.353466 l 0.26044,-0.07441 0.65113,-0.427881 0.50229,0.03721 0.11162,-0.297656 q 0.0558,-0.05581 0.44649,-0.409278 0.40928,-0.353467 0.72553,-0.632519 l 0.31626,-0.148828 0.22325,-0.334864 q 0.24184,-0.167431 0.50229,-0.279052 0.26045,-0.130225 0.55811,-0.223243 0.14883,-0.241845 0.35346,-0.390673 0.22325,-0.148828 0.53951,-0.223243 l 0.29765,-0.297656 q 0.14883,-0.05581 0.27905,-0.07441 0.14883,-0.03721 0.20464,-0.03721 0.22325,0 0.29766,0.07441 0.093,0.05581 0.093,0.223242 0,0.111621 -0.0558,0.26045 -0.0558,0.130224 -0.13023,0.223242 l -0.093,0.241845 q -0.13022,0.223243 -0.39067,0.502295 -0.24184,0.26045 -0.66973,0.651123 v 0.111621 q 0,0.223243 -0.11162,0.31626 -0.11162,0.07441 -0.42788,0.111621 -0.24184,0.502295 -1.0604,1.134815 -0.26045,0.204638 -0.40928,0.334863 l -0.31626,0.260449 -0.20463,0.09302 q -0.13023,0.111621 -0.29766,0.260449 -0.14883,0.148828 -0.40928,0.409277 l -0.22324,0.279053 -0.46509,0.297656 q -0.61391,0.539502 -1.37666,0.892969 -0.74414,0.334863 -1.28364,0.334863 h -0.18604 l -0.42788,-0.07441 -0.18603,0.111621 h -0.5395 q -0.68833,0 -1.15342,-0.130224 -0.44649,-0.148828 -0.66973,-0.446485 l -0.27905,0.03721 -0.44648,-0.409277 -0.22325,-0.427881 -0.20464,-0.204638 q -0.18603,-0.241846 -0.29765,-0.465088 -0.13023,-0.241846 -0.22324,-0.539502 z"
         style="stroke-width:0.264583"
         id="path902" />
    </g>
  </g>
</svg>
