<?xml version="1.0" encoding="UTF-8" standalone="no"?>
<svg
   xmlns:dc="http://purl.org/dc/elements/1.1/"
   xmlns:cc="http://creativecommons.org/ns#"
   xmlns:rdf="http://www.w3.org/1999/02/22-rdf-syntax-ns#"
   xmlns:svg="http://www.w3.org/2000/svg"
   xmlns="http://www.w3.org/2000/svg"
   id="svg8"
   version="1.1"
   viewBox="0 0 210 297"
   height="297mm"
   width="210mm">
  <defs
     id="defs2" />
  <metadata
     id="metadata5">
    <rdf:RDF>
      <cc:Work
         rdf:about="">
        <dc:format>image/svg+xml</dc:format>
        <dc:type
           rdf:resource="http://purl.org/dc/dcmitype/StillImage" />
        <dc:title></dc:title>
      </cc:Work>
    </rdf:RDF>
  </metadata>
  <g
     id="layer1">
    <g
       transform="matrix(0.64004143,0,0,0.8143907,11.16707,20.593654)"
       style="font-style:normal;font-variant:normal;font-weight:normal;font-stretch:normal;font-size:38.1px;line-height:0;font-family:monospace;-inkscape-font-specification:'monospace, Normal';font-variant-ligatures:normal;font-variant-caps:normal;font-variant-numeric:normal;font-variant-east-asian:normal;letter-spacing:1.15358px;word-spacing:0px;stroke-width:0.264583"
       id="text835"
       aria-label="WAZZEDO">
      <path
         d="m 32.308594,111.4707 c -1.08852,-0.0235 -1.713017,1.41555 -0.944755,2.18169 0.3296,0.37057 0.864335,0.4351 1.33538,0.42573 0.769254,6.73441 1.540735,13.46857 2.308593,20.20313 1.109375,0 2.218751,0 3.328126,0 1.314934,-4.68244 2.626004,-9.36597 3.939453,-14.04883 1.341064,4.68297 2.682783,9.36575 4.023437,14.04883 1.109375,0 2.21875,0 3.328125,0 0.725574,-6.73441 1.451879,-13.46874 2.177735,-20.20313 0.860973,0.12744 1.839972,-0.50984 1.68019,-1.45894 -0.07191,-1.0214 -1.241485,-1.26397 -2.078628,-1.16215 -1.907106,0.0307 -3.823217,-0.0601 -5.72511,0.0425 -1.210762,0.0817 -1.524702,1.91394 -0.435046,2.41253 1.154433,0.35424 2.401351,0.0792 3.592578,0.16601 0.748425,-0.11023 0.112535,1.01989 0.212127,1.49101 -0.501308,4.55638 -1.002616,9.11277 -1.503924,13.66915 -1.235472,-4.32102 -2.472602,-8.64157 -3.707031,-12.96289 -1.066406,0 -2.132813,0 -3.199219,0 -1.199316,4.3081 -2.399832,8.61586 -3.599609,12.92383 -0.565105,-5.04037 -1.130209,-10.08073 -1.695313,-15.1211 1.267689,-0.0697 2.570791,0.14357 3.817011,-0.1132 1.177976,-0.33388 1.043089,-2.26382 -0.170526,-2.44148 -1.819384,-0.15916 -3.663361,-0.0193 -5.491797,-0.0664 -0.397201,0.006 -0.795202,-0.0142 -1.191797,0.0137 z"
         style="font-style:normal;font-variant:normal;font-weight:normal;font-stretch:normal;font-size:38.1px;font-family:monospace;-inkscape-font-specification:'monospace, Normal';font-variant-ligatures:normal;font-variant-caps:normal;font-variant-numeric:normal;font-variant-east-asian:normal;stroke-width:0.264583"
         id="path837" />
      <path
         d="m 59.433594,111.4707 c -1.087343,-0.0236 -1.714403,1.40978 -0.949341,2.18035 0.822536,0.73482 2.038662,0.3121 3.03645,0.42707 0.684505,1e-5 1.369011,0 2.053516,0 -2.169922,5.86068 -4.339844,11.72136 -6.509766,17.58204 -0.860685,-0.0487 -2.123256,-0.0712 -2.375,0.98632 -0.281045,0.97462 0.70922,1.77962 1.633203,1.63477 2.064604,-0.0304 4.137969,0.0593 6.197506,-0.0419 1.195286,-0.0807 1.532018,-1.88233 0.452494,-2.39368 -0.999375,-0.37348 -2.103565,-0.10319 -3.146484,-0.18554 0.571614,-1.55078 1.143229,-3.10157 1.714844,-4.65235 3.177083,0 6.354166,0 9.53125,0 0.58138,1.55078 1.16276,3.10156 1.74414,4.65235 -1.056312,0.0926 -2.196913,-0.21432 -3.193359,0.2207 -1.020231,0.53786 -0.664075,2.26788 0.490979,2.3557 2.204931,0.096 4.424697,0.0349 6.634021,0.0291 1.144708,0.009 1.710365,-1.60891 0.78125,-2.2871 -0.552781,-0.4354 -1.296785,-0.29248 -1.947266,-0.31836 -2.54228,-6.73439 -5.084861,-13.46867 -7.626953,-20.20313 -2.840327,0.009 -5.681776,-0.0187 -8.521484,0.0137 z m 10.646484,12.91602 c -2.51888,0 -5.03776,0 -7.55664,0 1.240234,-3.36654 2.480468,-6.73307 3.720703,-10.09961 1.278645,3.36654 2.557291,6.73307 3.835937,10.09961 z"
         style="font-style:normal;font-variant:normal;font-weight:normal;font-stretch:normal;font-size:38.1px;font-family:monospace;-inkscape-font-specification:'monospace, Normal';font-variant-ligatures:normal;font-variant-caps:normal;font-variant-numeric:normal;font-variant-east-asian:normal;stroke-width:0.264583"
         id="path839" />
      <path
         d="m 83.003906,111.98633 c 0.02828,2.20561 -0.05537,4.41851 0.03945,6.61986 0.07374,1.21427 1.896815,1.54304 2.417584,0.46217 0.379672,-1.1259 0.09185,-2.35592 0.18164,-3.52383 0.149266,-0.47287 -0.365935,-1.6102 0.4,-1.46641 2.845833,0 5.691667,1e-5 8.5375,0 -4.094449,5.74476 -8.188515,11.48979 -12.283203,17.23438 0,0.98958 0,1.97917 0,2.96875 5.369792,0 10.739583,0 16.109375,0 -0.02921,-2.66586 0.05748,-5.33949 -0.04125,-8.00074 -0.062,-1.19384 -1.855545,-1.55434 -2.38453,-0.49926 -0.398939,1.06196 -0.104626,2.24566 -0.195313,3.35703 0,0.84063 0,1.68125 0,2.52188 -3.514974,0 -7.029948,0 -10.544922,0 4.102937,-5.76297 8.205299,-11.52635 12.308594,-17.28907 0,-0.97135 0,-1.9427 0,-2.91406 -4.848307,0 -9.696614,0 -14.544922,0 0,0.17643 0,0.35287 0,0.5293 z"
         style="font-style:normal;font-variant:normal;font-weight:normal;font-stretch:normal;font-size:38.1px;font-family:monospace;-inkscape-font-specification:'monospace, Normal';font-variant-ligatures:normal;font-variant-caps:normal;font-variant-numeric:normal;font-variant-east-asian:normal;stroke-width:0.264583"
         id="path841" />
      <path
         d="m 107.00195,111.98633 c 0.0303,2.20665 -0.0593,4.42211 0.0422,6.62361 0.0737,1.21343 1.89617,1.53696 2.4148,0.45842 0.38262,-1.1252 0.0936,-2.35585 0.1836,-3.52383 0.14926,-0.47287 -0.36594,-1.6102 0.4,-1.46641 2.84518,0 5.69036,1e-5 8.53554,0 -4.09444,5.74476 -8.18851,11.48979 -12.2832,17.23438 0,0.98958 0,1.97917 0,2.96875 5.36979,0 10.73959,0 16.10938,0 -0.0301,-2.66698 0.059,-5.34262 -0.0421,-8.0045 -0.0653,-1.22266 -1.91663,-1.54621 -2.41496,-0.44667 -0.34833,1.1618 -0.0794,2.41137 -0.16407,3.6082 0,0.74063 0,1.48125 0,2.22188 -3.51432,0 -7.02864,0 -10.54297,0 4.10294,-5.76297 8.2053,-11.52635 12.3086,-17.28907 0,-0.97135 0,-1.9427 0,-2.91406 -4.84896,0 -9.69792,0 -14.54688,0 0,0.17643 0,0.35287 0,0.5293 z"
         style="font-style:normal;font-variant:normal;font-weight:normal;font-stretch:normal;font-size:38.1px;font-family:monospace;-inkscape-font-specification:'monospace, Normal';font-variant-ligatures:normal;font-variant-caps:normal;font-variant-numeric:normal;font-variant-east-asian:normal;stroke-width:0.264583"
         id="path843" />
      <path
         d="m 129.25391,111.4707 c -1.08735,-0.0236 -1.71441,1.40978 -0.94934,2.18035 0.75196,0.70307 1.88392,0.33006 2.80871,0.42707 0,5.86068 0,11.72136 0,17.58204 -0.99699,0.0923 -2.4035,-0.3449 -3.00976,0.72461 -0.49359,0.90569 0.35807,2.00731 1.35011,1.8934 5.95344,0.007 11.90724,0.001 17.86082,0.003 -0.0301,-2.38698 0.0594,-4.7828 -0.0427,-7.16453 -0.0814,-1.21264 -1.91814,-1.52346 -2.41236,-0.43117 -0.35192,1.12037 -0.0807,2.3333 -0.16602,3.49062 -0.14871,0.47929 0.3646,1.62059 -0.4,1.48399 -3.51966,0 -7.03932,0 -10.55898,0 0,-2.62956 -1e-5,-5.25912 0,-7.88868 1.51367,0 3.02734,0 4.54101,0 0.0323,0.92767 -0.25459,2.30601 0.85742,2.72657 0.94645,0.3933 1.91271,-0.52548 1.78125,-1.48828 -0.0454,-1.88993 0.0895,-3.79442 -0.0644,-5.67579 -0.19017,-1.20326 -2.0865,-1.34038 -2.44855,-0.18226 -0.22558,0.63876 -0.0861,1.33506 -0.12567,1.99867 -1.51367,0 -3.02734,0 -4.54101,0 -1e-5,-2.35742 0,-4.71484 0,-7.07227 3.3802,1e-5 6.76041,0 10.14062,0 0.0541,1.31074 -0.10909,2.64398 0.082,3.94141 0.25937,1.22175 2.22284,1.1916 2.46289,-0.0312 0.18166,-1.6281 0.0229,-3.28593 0.0762,-4.925 -0.12769,-0.47438 0.25808,-1.46224 -0.2,-1.60625 -5.68058,0.009 -11.36221,-0.0184 -17.04218,0.0137 z"
         style="font-style:normal;font-variant:normal;font-weight:normal;font-stretch:normal;font-size:38.1px;font-family:monospace;-inkscape-font-specification:'monospace, Normal';font-variant-ligatures:normal;font-variant-caps:normal;font-variant-numeric:normal;font-variant-east-asian:normal;stroke-width:0.264583"
         id="path845" />
      <path
         d="m 154.55469,111.4707 c -1.08735,-0.0236 -1.71441,1.40978 -0.94934,2.18035 0.51722,0.55527 1.34756,0.40431 2.02746,0.42707 0,5.86068 0,11.72136 0,17.58204 -0.86608,-0.0665 -2.13384,-0.0311 -2.33984,1.04296 -0.2279,0.9626 0.74612,1.71364 1.64687,1.57813 3.08497,-0.0339 6.17531,0.0676 9.25706,-0.0499 2.97085,-0.26134 5.52036,-2.33338 7.02185,-4.81731 1.18536,-2.07606 1.53412,-4.50486 1.41602,-6.86484 0.0967,-2.09029 -0.27249,-4.22875 -1.38064,-6.03137 -0.95704,-1.73235 -2.28849,-3.32692 -4.12556,-4.15944 -2.29606,-1.25178 -4.97833,-0.82986 -7.47857,-0.90138 -1.69821,0.01 -3.39775,-0.0195 -5.09531,0.0137 z m 8.82617,2.60742 c 2.16729,-0.0161 4.20158,1.30901 5.25816,3.17069 0.95786,1.41593 1.51211,3.10468 1.3727,4.8258 0.0146,1.78482 0.13043,3.65863 -0.71349,5.29893 -1.09075,2.42005 -3.55444,4.46475 -6.32128,4.28662 -1.57435,0 -3.14869,0 -4.72304,0 0,-5.86068 0,-11.72136 0,-17.58204 1.70898,1e-5 3.41797,0 5.12695,0 z"
         style="font-style:normal;font-variant:normal;font-weight:normal;font-stretch:normal;font-size:38.1px;font-family:monospace;-inkscape-font-specification:'monospace, Normal';font-variant-ligatures:normal;font-variant-caps:normal;font-variant-numeric:normal;font-variant-east-asian:normal;stroke-width:0.264583"
         id="path847" />
      <path
         d="m 185.83594,110.9668 c -3.9733,0.18745 -7.33285,3.26698 -8.70272,6.87097 -1.15975,3.19875 -1.16804,6.82221 -0.0496,10.03321 1.31899,3.60633 4.6113,6.72634 8.56116,6.99684 3.91673,0.35136 7.66436,-2.21399 9.30049,-5.69345 2.40698,-4.8693 1.79787,-11.27592 -1.96867,-15.29937 -1.84305,-1.91299 -4.46489,-3.07092 -7.14062,-2.9082 z m 0.48437,2.60937 c 2.27696,-0.0781 4.37215,1.2836 5.55274,3.17383 2.93165,4.23458 2.3834,10.63058 -1.51302,14.08702 -2.25698,1.97824 -5.93115,1.88424 -8.13707,-0.13261 -2.40284,-1.91852 -3.46306,-5.08346 -3.33195,-8.08833 0.0136,-3.37436 1.71592,-6.90707 4.80661,-8.46683 0.81557,-0.38825 1.72078,-0.5742 2.62269,-0.57308 z"
         style="font-style:normal;font-variant:normal;font-weight:normal;font-stretch:normal;font-size:38.1px;font-family:monospace;-inkscape-font-specification:'monospace, Normal';font-variant-ligatures:normal;font-variant-caps:normal;font-variant-numeric:normal;font-variant-east-asian:normal;stroke-width:0.264583"
         id="path849" />
    </g>
  </g>
</svg>
