<?xml version="1.0" encoding="UTF-8" standalone="no"?>
<svg
   xmlns:dc="http://purl.org/dc/elements/1.1/"
   xmlns:cc="http://creativecommons.org/ns#"
   xmlns:rdf="http://www.w3.org/1999/02/22-rdf-syntax-ns#"
   xmlns:svg="http://www.w3.org/2000/svg"
   xmlns="http://www.w3.org/2000/svg"
   id="svg8"
   version="1.1"
   viewBox="0 0 210 297"
   height="297mm"
   width="210mm">
  <defs
     id="defs2" />
  <metadata
     id="metadata5">
    <rdf:RDF>
      <cc:Work
         rdf:about="">
        <dc:format>image/svg+xml</dc:format>
        <dc:type
           rdf:resource="http://purl.org/dc/dcmitype/StillImage" />
        <dc:title></dc:title>
      </cc:Work>
    </rdf:RDF>
  </metadata>
  <g
     id="layer1">
    <g
       style="font-style:normal;font-variant:normal;font-weight:normal;font-stretch:normal;font-size:19.05px;line-height:0;font-family:SimSun-ExtB;-inkscape-font-specification:'SimSun-ExtB, Normal';font-variant-ligatures:normal;font-variant-caps:normal;font-variant-numeric:normal;font-variant-east-asian:normal;letter-spacing:1.15358px;word-spacing:0px;stroke-width:0.264583"
       id="text835"
       aria-label="WAZZEDO">
      <path
         id="path837"
         style="font-style:normal;font-variant:normal;font-weight:normal;font-stretch:normal;font-size:19.05px;font-family:SimSun-ExtB;-inkscape-font-specification:'SimSun-ExtB, Normal';font-variant-ligatures:normal;font-variant-caps:normal;font-variant-numeric:normal;font-variant-east-asian:normal;stroke-width:0.264583"
         d="m 45.849693,146.77317 h 2.232422 v 0.44648 h -0.297656 q -0.148829,0 -0.372071,0.14883 -0.148828,0.14883 -0.223242,0.5209 l -2.00918,11.60859 h -0.446484 l -1.190625,-7.88789 h -0.148828 l -1.562695,7.88789 h -0.446485 l -1.785937,-11.68301 q 0,-0.29765 -0.148828,-0.44648 -0.07441,-0.14883 -0.297656,-0.14883 h -0.297657 v -0.44648 h 2.604493 v 0.44648 h -0.223243 q -0.297656,0 -0.446484,0.14883 -0.148828,0.14883 -0.148828,0.44648 l 1.190625,8.18555 h 0.148828 l 1.265039,-6.17637 -0.223242,-2.00918 q 0,-0.29765 -0.223242,-0.44648 -0.148829,-0.14883 -0.297657,-0.14883 h -0.223242 v -0.44648 h 2.530078 v 0.44648 h -0.223242 q -0.297656,0 -0.446484,0.14883 -0.07441,0.14883 -0.07441,0.44648 l 1.11621,7.96231 h 0.148829 l 1.339453,-7.81348 q 0.07441,-0.37207 -0.148828,-0.5209 -0.148829,-0.22324 -0.446485,-0.22324 h -0.223242 z" />
      <path
         id="path839"
         style="font-style:normal;font-variant:normal;font-weight:normal;font-stretch:normal;font-size:19.05px;font-family:SimSun-ExtB;-inkscape-font-specification:'SimSun-ExtB, Normal';font-variant-ligatures:normal;font-variant-caps:normal;font-variant-numeric:normal;font-variant-east-asian:normal;stroke-width:0.264583"
         d="m 56.156202,158.00969 -0.744141,-3.27422 h -3.348632 l -0.669727,2.82774 q -0.148828,0.66972 0,1.11621 0.148828,0.37207 0.669727,0.37207 h 0.223242 v 0.44648 h -2.75332 v -0.44648 h 0.223242 q 0.297656,0 0.520898,-0.14883 0.223243,-0.22324 0.297657,-0.66973 l 2.902148,-11.38535 1.116211,-0.37207 2.827734,11.75742 q 0.148828,0.44649 0.37207,0.66973 0.223243,0.14883 0.520899,0.14883 h 0.223242 v 0.44648 h -3.199805 v -0.44648 h 0.297657 q 0.446484,0 0.520898,-0.22325 0.148828,-0.29765 0,-0.81855 z m -0.818555,-3.7207 -1.488281,-6.17637 h -0.07441 l -1.562695,6.17637 z" />
      <path
         id="path841"
         style="font-style:normal;font-variant:normal;font-weight:normal;font-stretch:normal;font-size:19.05px;font-family:SimSun-ExtB;-inkscape-font-specification:'SimSun-ExtB, Normal';font-variant-ligatures:normal;font-variant-caps:normal;font-variant-numeric:normal;font-variant-east-asian:normal;stroke-width:0.264583"
         d="m 62.22111,159.05149 h 3.199804 q 0.967383,0 1.63711,-0.59532 0.74414,-0.66972 1.190625,-1.93476 l 0.446484,0.0744 -0.818555,2.90215 h -7.14375 l 6.548438,-12.27832 h -2.604492 q -0.967383,0 -1.785938,0.59531 -0.74414,0.5209 -1.339453,1.63711 l -0.446484,-0.14883 0.892969,-2.53007 h 6.771679 z" />
      <path
         id="path843"
         style="font-style:normal;font-variant:normal;font-weight:normal;font-stretch:normal;font-size:19.05px;font-family:SimSun-ExtB;-inkscape-font-specification:'SimSun-ExtB, Normal';font-variant-ligatures:normal;font-variant-caps:normal;font-variant-numeric:normal;font-variant-east-asian:normal;stroke-width:0.264583"
         d="m 72.899691,159.05149 h 3.199804 q 0.967383,0 1.63711,-0.59532 0.74414,-0.66972 1.190625,-1.93476 l 0.446484,0.0744 -0.818555,2.90215 H 71.41141 l 6.548437,-12.27832 h -2.604492 q -0.967383,0 -1.785938,0.59531 -0.74414,0.5209 -1.339453,1.63711 l -0.446484,-0.14883 0.892969,-2.53007 h 6.771679 z" />
      <path
         id="path845"
         style="font-style:normal;font-variant:normal;font-weight:normal;font-stretch:normal;font-size:19.05px;font-family:SimSun-ExtB;-inkscape-font-specification:'SimSun-ExtB, Normal';font-variant-ligatures:normal;font-variant-caps:normal;font-variant-numeric:normal;font-variant-east-asian:normal;stroke-width:0.264583"
         d="m 82.387643,147.21965 h -0.37207 v -0.44648 h 7.292578 l 0.818555,2.53007 -0.372071,0.14883 q -0.595312,-1.11621 -1.265039,-1.63711 -0.669726,-0.59531 -1.488281,-0.59531 h -2.083594 q -0.297656,0 -0.520898,0.14883 -0.148828,0.14883 -0.148828,0.44648 v 4.61367 h 2.158008 q 0.74414,0 1.041796,-0.37207 0.372071,-0.37207 0.372071,-1.11621 v -0.44648 h 0.446484 v 4.39043 H 87.81987 v -0.29766 q 0,-0.81855 -0.372071,-1.26504 -0.297656,-0.44648 -1.041796,-0.44648 h -2.158008 v 5.58105 q 0,0.29766 0.148828,0.44649 0.223242,0.14883 0.520898,0.14883 h 1.934766 q 1.116211,0 1.860351,-0.59532 0.818555,-0.66972 1.265039,-2.00918 l 0.372071,0.14883 -0.818555,2.90215 h -7.590234 v -0.44648 h 0.446484 q 0.372071,0 0.520899,-0.14883 0.148828,-0.14883 0.148828,-0.44649 v -10.64121 q 0,-0.29765 -0.148828,-0.44648 -0.148828,-0.14883 -0.520899,-0.14883 z" />
      <path
         id="path847"
         style="font-style:normal;font-variant:normal;font-weight:normal;font-stretch:normal;font-size:19.05px;font-family:SimSun-ExtB;-inkscape-font-specification:'SimSun-ExtB, Normal';font-variant-ligatures:normal;font-variant-caps:normal;font-variant-numeric:normal;font-variant-east-asian:normal;stroke-width:0.264583"
         d="m 98.424037,157.86086 q 1.116211,-1.26504 1.116211,-4.83691 0,-3.19981 -0.967383,-4.46485 -0.967383,-1.33945 -2.678906,-1.33945 -0.520899,0 -0.818555,0.14883 -0.223242,0.14883 -0.223242,0.44648 v 10.64121 q 0,0.29766 0.223242,0.44649 0.223242,0.14883 0.595313,0.14883 1.637109,0 2.75332,-1.19063 z m -4.7625,0.59531 v -10.64121 q 0,-0.29765 -0.148828,-0.44648 -0.148828,-0.14883 -0.520898,-0.14883 h -0.446485 v -0.44648 h 3.348633 q 2.306836,0 3.646289,1.48828 1.413862,1.48828 1.413862,4.61367 0,3.42305 -1.339448,5.06016 -1.339453,1.56269 -3.943945,1.56269 h -3.199805 v -0.44648 h 0.520899 q 0.37207,0 0.520898,-0.14883 0.148828,-0.14883 0.148828,-0.44649 z" />
      <path
         id="path849"
         style="font-style:normal;font-variant:normal;font-weight:normal;font-stretch:normal;font-size:19.05px;font-family:SimSun-ExtB;-inkscape-font-specification:'SimSun-ExtB, Normal';font-variant-ligatures:normal;font-variant-caps:normal;font-variant-numeric:normal;font-variant-east-asian:normal;stroke-width:0.264583"
         d="m 105.60516,148.63352 q -0.74414,1.48828 -0.74414,4.46484 0,3.19981 0.74414,4.68809 0.81855,1.41386 2.00918,1.41386 1.26504,0 2.00918,-1.33945 0.74414,-1.41387 0.74414,-4.7625 0,-2.6789 -0.66973,-4.31601 -0.59531,-1.63711 -2.08359,-1.63711 -1.26504,0 -2.00918,1.48828 z m 5.06015,-0.0744 q 1.11621,1.86036 1.11621,4.53926 0,3.05098 -1.19062,4.83692 -1.19063,1.71152 -2.97656,1.71152 -1.71153,0 -2.97657,-1.78594 -1.19062,-1.78594 -1.19062,-4.7625 0,-2.90215 1.11621,-4.68808 1.19063,-1.78594 3.05098,-1.78594 1.93476,0 3.05097,1.93476 z" />
    </g>
  </g>
</svg>
