<?xml version="1.0" encoding="UTF-8" standalone="no"?>
<svg
   xmlns:dc="http://purl.org/dc/elements/1.1/"
   xmlns:cc="http://creativecommons.org/ns#"
   xmlns:rdf="http://www.w3.org/1999/02/22-rdf-syntax-ns#"
   xmlns:svg="http://www.w3.org/2000/svg"
   xmlns="http://www.w3.org/2000/svg"
   id="svg8"
   version="1.1"
   viewBox="0 0 210 297"
   height="297mm"
   width="210mm">
  <defs
     id="defs2" />
  <metadata
     id="metadata5">
    <rdf:RDF>
      <cc:Work
         rdf:about="">
        <dc:format>image/svg+xml</dc:format>
        <dc:type
           rdf:resource="http://purl.org/dc/dcmitype/StillImage" />
        <dc:title></dc:title>
      </cc:Work>
    </rdf:RDF>
  </metadata>
  <g
     id="layer1">
    <g
       style="font-style:normal;font-variant:normal;font-weight:normal;font-stretch:normal;font-size:35.9428px;line-height:0;font-family:'Tempus Sans ITC';-inkscape-font-specification:'Tempus Sans ITC, Normal';font-variant-ligatures:normal;font-variant-caps:normal;font-variant-numeric:normal;font-variant-east-asian:normal;letter-spacing:1.08827px;word-spacing:0px;stroke-width:0.249596"
       id="text835"
       transform="scale(0.94337083,1.0600285)"
       aria-label="Bicycle">
      <path
         d="m 45.789062,108.78906 c -0.385935,0.41179 -1.160832,0.2129 -1.513671,0.75977 -0.734546,0.94913 -0.0877,2.19659 -0.01318,3.25457 0.523569,4.25064 -0.0019,8.53655 0.06235,12.80284 -0.0048,2.37031 -0.04531,4.62685 -0.369358,6.9276 -0.214269,0.84981 0.126777,1.76031 -0.347459,2.55214 -0.119489,0.47752 1.01757,0.002 1.40593,0.0937 1.042708,-0.0452 2.090165,-0.0541 3.11914,-0.041 0.498609,-0.18 1.00676,0.34439 1.320313,-0.33008 1.191337,-0.12898 2.465816,-0.2239 3.552734,-0.76171 0.686385,0.12345 1.061736,-0.8172 1.714844,-0.74024 2.168293,-1.48116 3.914819,-3.86099 3.910819,-6.57521 0.09992,-2.08804 -0.720879,-4.2907 -2.5167,-5.47104 -0.845177,-0.63128 -1.824715,-1.08856 -2.782791,-1.48695 1.452649,-1.27815 2.788773,-2.96445 2.96875,-4.94922 0.08543,-2.00374 -1.038753,-4.07444 -2.974294,-4.78183 -1.979149,-0.76717 -4.156066,-0.71996 -6.222971,-1.00333 -0.410283,-0.0353 -0.839542,-0.71982 -1.161115,-0.41157 -0.05111,0.0539 -0.102226,0.10772 -0.153339,0.16157 z m 2.714844,2.44922 c 0.963927,0.26954 1.990062,0.4385 2.890625,0.8711 1.643132,1.29181 2.161357,4.03161 0.594095,5.59124 -0.551486,0.47266 -1.024644,1.41337 -1.871438,1.20758 -0.619887,-0.16613 -0.76344,0.42558 -1.19336,0.40625 -0.454898,0.007 -0.65306,0.49686 -1.227743,0.26521 -0.220941,-0.26063 -0.06329,-0.89264 -0.129696,-1.274 -0.01526,-2.19815 -0.433564,-4.43915 0.07033,-6.60839 0.106022,-0.38427 0.508844,-0.50793 0.867187,-0.45899 z m -0.357422,10.52539 c 0.533275,0.0123 0.793307,1.04698 1.259766,0.39649 0.512775,-0.51836 1.305982,-0.0815 1.934615,-0.0211 2.245387,0.46836 4.470024,2.41495 4.260842,4.87759 -0.111523,2.83865 -2.380587,5.44905 -5.197637,5.8719 -0.613306,-0.21858 -0.969535,0.26837 -1.457479,0.20641 -0.478926,-0.25796 -1.098062,-0.077 -1.536435,-0.35276 0.121466,-0.87181 -0.271399,-1.74299 -0.08291,-2.63337 0.173724,-1.2339 0.03494,-2.46889 -0.03887,-3.70075 0.212118,-1.21201 0.212759,-2.43713 0.182143,-3.66284 0.02969,-0.39698 0.107103,-1.09306 0.675966,-0.98156 z"
         style="font-style:normal;font-variant:normal;font-weight:normal;font-stretch:normal;font-size:35.9428px;font-family:'Tempus Sans ITC';-inkscape-font-specification:'Tempus Sans ITC, Normal';font-variant-ligatures:normal;font-variant-caps:normal;font-variant-numeric:normal;font-variant-east-asian:normal;stroke-width:0.249596"
         id="path837" />
      <path
         d="m 66.574219,111.40234 c -0.924335,0.0941 -1.809954,0.88746 -1.910157,1.82813 0.499482,0.89275 1.466869,1.92492 2.59961,1.64453 0.970396,-0.25172 1.996588,-1.53393 1.208984,-2.45898 -0.485671,-0.45801 -1.158706,-0.72591 -1.728906,-1.01758 -0.05638,0.002 -0.113547,-0.005 -0.169531,0.004 z m -0.154297,5.34961 c -0.844971,0.1908 -1.642184,0.63012 -2.41362,1.02567 -0.867995,0.63637 -0.501514,1.94781 -0.02042,2.72467 0.190703,0.6725 -0.03412,1.44072 0.06919,2.14749 0.03486,3.13382 0.253519,6.27582 -0.0062,9.40491 -0.458978,0.81742 -0.617838,1.82401 -0.546875,2.74609 0.359126,0.74787 1.278157,1.06755 2.037109,0.74805 0.81933,-0.052 1.629556,-0.40651 2.302735,-0.85938 0.422849,-0.43322 0.127101,-0.66673 -0.0243,-1.07012 -0.195481,-0.97182 -0.893585,-1.78382 -0.821437,-2.82058 -0.375227,-4.14012 0.279531,-8.22134 0.428016,-12.36004 -0.0086,-0.66185 -0.132023,-1.70745 -1.004154,-1.68676 z"
         style="font-style:normal;font-variant:normal;font-weight:normal;font-stretch:normal;font-size:35.9428px;font-family:'Tempus Sans ITC';-inkscape-font-specification:'Tempus Sans ITC, Normal';font-variant-ligatures:normal;font-variant-caps:normal;font-variant-numeric:normal;font-variant-east-asian:normal;stroke-width:0.249596"
         id="path839" />
      <path
         d="m 84.220703,117.59375 c -1.695476,0.079 -3.412419,0.10323 -5.074142,0.51723 -1.341416,0.15089 -2.385635,1.08012 -3.464615,1.79948 -2.015231,1.47572 -3.255538,3.87423 -3.34373,6.36536 -0.269967,2.47695 0.568309,5.07551 2.424222,6.77662 0.910888,0.99637 2.207469,1.40002 3.460459,1.7714 1.490186,0.65046 3.136696,0.25092 4.701563,0.26607 0.959063,-0.0991 1.927341,-0.26794 2.862536,-0.4482 0.859339,-0.51187 0.83957,-1.83424 0.382926,-2.62218 -0.288056,-0.48658 -0.802464,-0.75461 -1.248047,-1.07226 -0.168612,0.51673 -0.513783,0.94307 -1.098111,0.93747 -0.883726,0.26947 -1.788394,0.41532 -2.714727,0.37856 -0.92056,0.0549 -1.815601,-0.30444 -2.722318,-0.37072 -0.06755,-0.7337 -0.870106,-0.17133 -1.132813,-0.74219 -1.126687,-0.96156 -2.299034,-2.14112 -2.320312,-3.72461 -0.07285,-1.08074 -0.142973,-2.23653 0.119282,-3.27191 0.838634,-0.89209 1.073465,-2.43729 2.458843,-2.69879 0.452694,-0.20186 0.882464,-0.45537 1.255859,-0.7832 0.57058,0.36817 1.050257,-0.5096 1.686209,-0.32905 0.841106,0.0618 1.683273,0.24773 2.51331,0.32504 0.729439,0.55619 1.67543,1.06393 2.622772,0.74041 0.665369,-0.0585 0.155827,-1.03645 0.291398,-1.50948 0.01451,-0.71758 0.345671,-1.68814 -0.455486,-2.13122 -0.361228,-0.21907 -0.798871,-0.20325 -1.205078,-0.17383 z"
         style="font-style:normal;font-variant:normal;font-weight:normal;font-stretch:normal;font-size:35.9428px;font-family:'Tempus Sans ITC';-inkscape-font-specification:'Tempus Sans ITC, Normal';font-variant-ligatures:normal;font-variant-caps:normal;font-variant-numeric:normal;font-variant-east-asian:normal;stroke-width:0.249596"
         id="path841" />
      <path
         d="m 89.798828,117.16797 c -0.901955,0.55779 -1.668775,1.39626 -2.103516,2.36133 0.0196,0.55034 0.680924,0.51045 0.703126,1.05859 0.563217,0.84984 1.220004,1.64459 1.54783,2.63028 1.106394,2.34557 2.264424,4.66809 3.260717,7.06356 0.351518,0.89064 0.948588,1.68556 1.238491,2.5885 0.134837,0.70414 0.136429,1.77988 1.009602,1.96766 -1.0745,2.38436 -2.557483,4.59635 -3.93699,6.83811 -0.256236,0.41066 -0.07103,0.90502 -0.506209,1.22741 -0.322348,0.58383 -1.051142,1.08384 -0.879067,1.81143 0.285101,0.78849 1.180199,0.38916 1.791784,0.55675 0.772273,0.32077 1.952843,0.15286 2.108607,-0.82628 0.255143,-2.04975 1.353862,-3.86254 2.086744,-5.76561 0.568674,-1.24485 1.044894,-2.55759 1.669115,-3.76173 0.566086,-0.0427 0.359187,-0.75772 0.798073,-1.02824 0.6972,-1.10247 0.471054,-2.50726 1.071682,-3.65907 1.128653,-2.51379 2.610803,-4.85269 3.898403,-7.28707 0.62428,-1.00204 1.05079,-2.19196 2.01895,-2.9182 0.57592,-0.54701 0.42419,-1.62352 -0.40625,-1.81836 -0.68646,-0.23222 -1.45419,-0.4124 -2.14258,-0.16211 -1.0397,-0.0236 -1.16678,1.18152 -1.35384,1.94284 -0.24049,1.44137 -0.9668,2.70767 -1.64741,3.97394 -1.012162,2.0978 -1.926378,4.2365 -2.871793,6.36447 -0.878331,-1.25121 -1.787023,-2.51525 -2.380099,-3.94342 -0.748284,-1.66731 -1.589099,-3.31881 -2.31912,-4.97689 -0.04528,-1.01618 -0.468442,-1.98939 -0.713739,-2.97564 -0.129537,-0.7404 -0.796288,-1.10175 -1.45423,-1.30522 -0.200812,-0.12643 -0.309762,-0.11534 -0.488281,0.043 z"
         style="font-style:normal;font-variant:normal;font-weight:normal;font-stretch:normal;font-size:35.9428px;font-family:'Tempus Sans ITC';-inkscape-font-specification:'Tempus Sans ITC, Normal';font-variant-ligatures:normal;font-variant-caps:normal;font-variant-numeric:normal;font-variant-east-asian:normal;stroke-width:0.249596"
         id="path843" />
      <path
         d="m 119.8125,117.59375 c -1.69548,0.079 -3.41242,0.10323 -5.07414,0.51723 -1.34164,0.15111 -2.38549,1.07994 -3.46462,1.79948 -2.0154,1.47558 -3.25485,3.87451 -3.34373,6.36536 -0.26946,2.47681 0.56918,5.07525 2.42423,6.77662 0.91088,0.99637 2.20746,1.40002 3.46045,1.7714 1.49019,0.65046 3.1367,0.25092 4.70157,0.26607 0.95899,-0.0992 1.9277,-0.26782 2.86253,-0.4482 0.85913,-0.51305 0.8424,-1.83758 0.38098,-2.62609 -0.28805,-0.48511 -0.80174,-0.75105 -1.2461,-1.06835 -0.16893,0.5152 -0.5124,0.94361 -1.0962,0.93727 -0.88431,0.26977 -1.7896,0.41554 -2.71664,0.37876 -0.92059,0.0549 -1.81552,-0.30483 -2.72231,-0.37072 -0.0675,-0.7337 -0.87011,-0.17133 -1.13282,-0.74219 -1.12668,-0.96156 -2.29903,-2.14112 -2.32031,-3.72461 -0.0706,-1.08087 -0.14437,-2.23905 0.12124,-3.27386 0.82551,-0.85533 1.03171,-2.36608 2.35345,-2.65542 0.49242,-0.20241 0.95746,-0.47366 1.3593,-0.82462 0.56987,0.36678 1.05089,-0.50872 1.68621,-0.3291 0.8411,0.0618 1.68326,0.2478 2.5133,0.32509 0.72993,0.5567 1.67681,1.06366 2.62473,0.74041 0.66533,-0.0585 0.15588,-1.03645 0.29156,-1.50948 0.009,-0.71733 0.34573,-1.68081 -0.45174,-2.12732 -0.3608,-0.22294 -0.80294,-0.20739 -1.21094,-0.17773 z"
         style="font-style:normal;font-variant:normal;font-weight:normal;font-stretch:normal;font-size:35.9428px;font-family:'Tempus Sans ITC';-inkscape-font-specification:'Tempus Sans ITC, Normal';font-variant-ligatures:normal;font-variant-caps:normal;font-variant-numeric:normal;font-variant-east-asian:normal;stroke-width:0.249596"
         id="path845" />
      <path
         d="m 128.37109,103.60742 c -1.63529,0.0788 -2.70257,1.9539 -2.36718,3.4375 0.0829,0.6242 -0.0902,1.34136 0.19008,1.96978 0.10017,2.16766 0.25469,4.36357 0.0698,6.54001 -0.0532,2.08205 0.25844,4.16158 0.15686,6.24554 0.0167,3.15357 0.13751,6.32427 -0.22925,9.46342 -0.24905,0.58922 -0.21691,1.21177 -0.1875,1.83399 -0.51777,-0.0136 -0.26477,0.8574 -0.0781,1.16211 0.42681,0.53757 1.18221,0.86498 1.82846,0.90014 0.41632,-0.36573 0.9688,-0.005 1.38053,-0.40405 0.76007,-0.0166 1.12593,-0.91187 1.1248,-1.51844 -0.58018,-0.67034 -0.69766,-1.53388 -0.80854,-2.37564 -0.21584,-0.78708 -0.0765,-1.65763 -0.11026,-2.49024 0.0995,-5.11721 -0.003,-10.23505 0.052,-15.35219 0.0742,-1.81796 -0.008,-3.63724 -0.002,-5.45269 0.0275,-0.73572 0.52169,-1.32137 0.94568,-1.87916 -0.35058,-0.88268 -0.83403,-2.08691 -1.96485,-2.08008 z"
         style="font-style:normal;font-variant:normal;font-weight:normal;font-stretch:normal;font-size:35.9428px;font-family:'Tempus Sans ITC';-inkscape-font-specification:'Tempus Sans ITC, Normal';font-variant-ligatures:normal;font-variant-caps:normal;font-variant-numeric:normal;font-variant-east-asian:normal;stroke-width:0.249596"
         id="path847" />
      <path
         d="m 144.36328,117.30469 c -0.93496,0.0734 -1.8858,0.25123 -2.75803,0.55467 -1.10038,-0.18546 -1.85753,0.82193 -2.75369,1.26759 -1.6546,1.05607 -2.89707,2.66715 -3.54266,4.51669 -1.08997,2.62935 -1.24873,5.83264 0.36298,8.28995 1.41249,2.15741 4.09284,2.76954 6.45959,3.23059 1.44872,0.357 2.93973,0.44284 4.42517,0.33777 1.55409,0.3977 2.79333,-1.39366 2.56445,-2.81054 -0.10274,-0.37452 -0.18704,-0.98373 -0.48328,-1.14299 -0.74897,0.0122 -1.36696,0.47546 -2.01515,0.73478 -1.74845,-0.0349 -3.53343,0.45608 -5.24941,-0.10882 -1.26881,-0.40134 -2.33232,-1.26637 -3.34981,-2.08649 -0.52754,-1.01337 -0.69546,-2.18561 -0.77404,-3.24643 -0.0181,-0.47962 0.0822,-0.90874 0.44982,-1.22232 0.36271,-0.34284 1.08317,-0.31934 1.60351,-0.41602 1.58141,-0.16484 3.17992,0.18468 4.74608,-0.18483 0.74497,-0.0223 1.50478,0.22741 2.24221,0.0774 0.36269,0.0899 0.78389,0.48641 1.1395,0.38461 0.48132,-0.43996 1.40323,-0.0424 1.7101,-0.78109 0.14759,-0.50529 0.44084,-1.05382 0.19141,-1.58789 0.009,-0.59598 -0.30332,-1.16561 -0.29824,-1.76687 -0.17351,-1.47965 -0.93776,-3.0032 -2.40293,-3.5593 -0.70237,-0.34117 -1.48225,-0.5457 -2.26758,-0.48047 z m -0.97851,2.31054 c 1.07462,0.0474 2.45828,0.5052 2.66828,1.71774 0.0834,0.49012 0.38791,1.50697 -0.42046,1.48335 -2.3865,0.0717 -4.8563,0.22772 -7.27712,0.23446 0.95281,-1.16077 1.84595,-2.48799 3.26974,-3.10278 0.49568,-0.2966 1.1853,-0.39067 1.75956,-0.33277 z"
         style="font-style:normal;font-variant:normal;font-weight:normal;font-stretch:normal;font-size:35.9428px;font-family:'Tempus Sans ITC';-inkscape-font-specification:'Tempus Sans ITC, Normal';font-variant-ligatures:normal;font-variant-caps:normal;font-variant-numeric:normal;font-variant-east-asian:normal;stroke-width:0.249596"
         id="path849" />
    </g>
  </g>
</svg>
