<?xml version="1.0" encoding="UTF-8" standalone="no"?>
<svg
   xmlns:dc="http://purl.org/dc/elements/1.1/"
   xmlns:cc="http://creativecommons.org/ns#"
   xmlns:rdf="http://www.w3.org/1999/02/22-rdf-syntax-ns#"
   xmlns:svg="http://www.w3.org/2000/svg"
   xmlns="http://www.w3.org/2000/svg"
   id="svg8"
   version="1.1"
   viewBox="0 0 210 297"
   height="297mm"
   width="210mm">
  <defs
     id="defs2" />
  <metadata
     id="metadata5">
    <rdf:RDF>
      <cc:Work
         rdf:about="">
        <dc:format>image/svg+xml</dc:format>
        <dc:type
           rdf:resource="http://purl.org/dc/dcmitype/StillImage" />
        <dc:title></dc:title>
      </cc:Work>
    </rdf:RDF>
  </metadata>
  <g
     id="layer1">
    <g
       style="font-style:normal;font-variant:normal;font-weight:normal;font-stretch:normal;font-size:34.3617px;line-height:0;font-family:'Square721 BT';-inkscape-font-specification:'Square721 BT, Normal';font-variant-ligatures:normal;font-variant-caps:normal;font-variant-numeric:normal;font-variant-east-asian:normal;letter-spacing:1.04034px;word-spacing:0px;fill:#ffffff;fill-opacity:1;stroke-width:0.238625"
       id="text835"
       transform="scale(0.90188057,1.1087943)"
       aria-label="Northstreet">
      <path
         id="path837"
         style="font-style:normal;font-variant:normal;font-weight:normal;font-stretch:normal;font-size:34.3617px;font-family:'Square721 BT';-inkscape-font-specification:'Square721 BT, Normal';font-variant-ligatures:normal;font-variant-caps:normal;font-variant-numeric:normal;font-variant-east-asian:normal;fill:#ffffff;fill-opacity:1;stroke-width:0.238625"
         d="M -10.32769,94.932846 V 69.950147 h 4.2616559 L 7.4739514,92.248338 V 69.950147 H 10.225572 V 94.932846 H 5.9639159 L -7.5760697,72.601098 v 22.331748 z" />
      <path
         id="path839"
         style="font-style:normal;font-variant:normal;font-weight:normal;font-stretch:normal;font-size:34.3617px;font-family:'Square721 BT';-inkscape-font-specification:'Square721 BT, Normal';font-variant-ligatures:normal;font-variant-caps:normal;font-variant-numeric:normal;font-variant-east-asian:normal;fill:#ffffff;fill-opacity:1;stroke-width:0.238625"
         d="m 29.050775,87.617563 v -3.020071 q 0,-3.338857 -0.855687,-4.244878 -0.838909,-0.9228 -3.556973,-0.9228 h -1.224806 q -2.701286,0 -3.540195,0.906022 -0.82213,0.906021 -0.82213,4.261656 v 3.020071 q 0,3.372412 0.838908,4.278434 0.838909,0.906021 3.523417,0.906021 h 1.224806 q 2.701286,0 3.556973,-0.922799 0.855687,-0.9228 0.855687,-4.261656 z m -5.60391,7.550177 q -3.959649,0 -5.536797,-1.543591 -1.577148,-1.543592 -1.577148,-5.41935 v -4.194544 q 0,-3.892536 1.56037,-5.436128 1.577148,-1.543591 5.520019,-1.543591 h 1.224806 q 3.959649,0 5.536797,1.543591 1.577149,1.543592 1.577149,5.436128 v 4.194544 q 0,3.892536 -1.577149,5.436128 -1.56037,1.526813 -5.50324,1.526813 z" />
      <path
         id="path841"
         style="font-style:normal;font-variant:normal;font-weight:normal;font-stretch:normal;font-size:34.3617px;font-family:'Square721 BT';-inkscape-font-specification:'Square721 BT, Normal';font-variant-ligatures:normal;font-variant-caps:normal;font-variant-numeric:normal;font-variant-east-asian:normal;fill:#ffffff;fill-opacity:1;stroke-width:0.238625"
         d="M 37.456734,94.932846 V 77.26543 h 2.533504 v 2.416057 q 0.55368,-1.37581 1.728152,-2.013381 1.174472,-0.63757 3.12074,-0.63757 2.885846,0 4.04354,1.392588 1.174472,1.392588 1.174472,4.932783 v 0.134225 h -2.634173 v -0.520123 q 0,-2.11405 -0.671127,-2.835511 -0.671127,-0.73824 -2.533504,-0.73824 -2.181163,0 -3.154297,1.241585 -0.973134,1.224806 -0.973134,4.026761 v 10.268242 z" />
      <path
         id="path843"
         style="font-style:normal;font-variant:normal;font-weight:normal;font-stretch:normal;font-size:34.3617px;font-family:'Square721 BT';-inkscape-font-specification:'Square721 BT, Normal';font-variant-ligatures:normal;font-variant-caps:normal;font-variant-numeric:normal;font-variant-east-asian:normal;fill:#ffffff;fill-opacity:1;stroke-width:0.238625"
         d="M 52.875967,79.496927 V 77.26543 h 2.164384 v -3.976427 h 2.617395 v 3.976427 h 8.657537 v 2.231497 h -8.657537 v 9.73134 q 0,2.080494 0.671127,2.835511 0.687905,0.73824 2.600617,0.73824 1.895933,0 2.550282,-0.721461 0.671127,-0.721462 0.671127,-2.85229 v -0.520123 h 2.650951 v 0.151003 q 0,3.724755 -1.241584,5.016674 -1.224807,1.291919 -5.117343,1.291919 -3.036849,0 -4.2281,-1.359032 -1.174472,-1.37581 -1.174472,-4.949561 v -9.36222 z" />
      <path
         id="path845"
         style="font-style:normal;font-variant:normal;font-weight:normal;font-stretch:normal;font-size:34.3617px;font-family:'Square721 BT';-inkscape-font-specification:'Square721 BT, Normal';font-variant-ligatures:normal;font-variant-caps:normal;font-variant-numeric:normal;font-variant-east-asian:normal;fill:#ffffff;fill-opacity:1;stroke-width:0.238625"
         d="M 72.657527,94.932846 V 69.950147 h 2.499947 v 9.73134 q 0.637571,-1.359032 2.046938,-1.996603 1.409366,-0.654348 3.724754,-0.654348 3.473082,0 4.86567,1.409366 1.392588,1.392588 1.392588,4.916005 v 11.576939 h -2.617395 v -11.02326 q 0,-2.768398 -0.82213,-3.640863 -0.805352,-0.872465 -3.154297,-0.872465 -2.768398,0 -4.060317,1.258363 -1.275142,1.258363 -1.275142,4.009983 v 10.268242 z" />
      <path
         id="path847"
         style="font-style:normal;font-variant:normal;font-weight:normal;font-stretch:normal;font-size:34.3617px;font-family:'Square721 BT';-inkscape-font-specification:'Square721 BT, Normal';font-variant-ligatures:normal;font-variant-caps:normal;font-variant-numeric:normal;font-variant-east-asian:normal;fill:#ffffff;fill-opacity:1;stroke-width:0.238625"
         d="m 92.841763,89.681278 h 2.650951 v 0.402676 q 0,1.627483 1.006691,2.248275 1.00669,0.604014 4.043535,0.604014 3.40597,0 4.19455,-0.620792 0.78857,-0.620792 0.78857,-2.399279 0,-1.728151 -0.65435,-2.298609 -0.63757,-0.587236 -3.22141,-0.721462 -0.95635,-0.05033 -2.583835,-0.100669 -3.556973,-0.100669 -4.2281,-0.486567 -1.00669,-0.55368 -1.442922,-1.510035 -0.419455,-0.956356 -0.419455,-2.751621 0,-2.93618 1.493258,-3.976427 1.493257,-1.040246 6.577044,-1.040246 3.94287,0 5.33546,0.989912 1.40936,0.989912 1.40936,3.473082 h -2.61739 v -0.167782 q 0,-1.174472 -1.02347,-1.610705 -1.00669,-0.45301 -4.02676,-0.45301 -2.919402,0 -3.724755,0.536901 -0.805352,0.536902 -0.805352,2.248275 0,1.040247 0.151004,1.459701 0.151003,0.419455 0.536901,0.637571 0.788574,0.419454 3.48986,0.486567 0.687902,0.01678 1.057022,0.03356 2.21472,0.08389 3.47308,0.234895 1.25837,0.134225 1.79527,0.385898 1.17447,0.536901 1.66104,1.543592 0.50334,1.00669 0.50334,2.919402 0,1.946268 -0.48656,2.952958 -0.48657,1.00669 -1.74493,1.778486 -0.57046,0.36912 -1.86238,0.520124 -1.29192,0.167781 -3.59053,0.167781 -4.697888,0 -6.224702,-1.073803 -1.510035,-1.090581 -1.510035,-3.94287 z" />
      <path
         id="path849"
         style="font-style:normal;font-variant:normal;font-weight:normal;font-stretch:normal;font-size:34.3617px;font-family:'Square721 BT';-inkscape-font-specification:'Square721 BT, Normal';font-variant-ligatures:normal;font-variant-caps:normal;font-variant-numeric:normal;font-variant-east-asian:normal;fill:#ffffff;fill-opacity:1;stroke-width:0.238625"
         d="M 112.84144,79.496927 V 77.26543 h 2.16438 v -3.976427 h 2.6174 v 3.976427 h 8.65753 v 2.231497 h -8.65753 v 9.73134 q 0,2.080494 0.67112,2.835511 0.68791,0.73824 2.60062,0.73824 1.89593,0 2.55028,-0.721461 0.67113,-0.721462 0.67113,-2.85229 v -0.520123 h 2.65095 v 0.151003 q 0,3.724755 -1.24159,5.016674 -1.2248,1.291919 -5.11734,1.291919 -3.03685,0 -4.2281,-1.359032 -1.17447,-1.37581 -1.17447,-4.949561 v -9.36222 z" />
      <path
         id="path851"
         style="font-style:normal;font-variant:normal;font-weight:normal;font-stretch:normal;font-size:34.3617px;font-family:'Square721 BT';-inkscape-font-specification:'Square721 BT, Normal';font-variant-ligatures:normal;font-variant-caps:normal;font-variant-numeric:normal;font-variant-east-asian:normal;fill:#ffffff;fill-opacity:1;stroke-width:0.238625"
         d="M 132.58945,94.932846 V 77.26543 h 2.5335 v 2.416057 q 0.55368,-1.37581 1.72815,-2.013381 1.17448,-0.63757 3.12074,-0.63757 2.88585,0 4.04354,1.392588 1.17448,1.392588 1.17448,4.932783 v 0.134225 h -2.63418 v -0.520123 q 0,-2.11405 -0.67112,-2.835511 -0.67113,-0.73824 -2.53351,-0.73824 -2.18116,0 -3.1543,1.241585 -0.97313,1.224806 -0.97313,4.026761 v 10.268242 z" />
      <path
         id="path853"
         style="font-style:normal;font-variant:normal;font-weight:normal;font-stretch:normal;font-size:34.3617px;font-family:'Square721 BT';-inkscape-font-specification:'Square721 BT, Normal';font-variant-ligatures:normal;font-variant-caps:normal;font-variant-numeric:normal;font-variant-east-asian:normal;fill:#ffffff;fill-opacity:1;stroke-width:0.238625"
         d="m 151.76699,84.379375 h 9.99979 V 83.69147 q 0,-2.483169 -0.88924,-3.372413 -0.88924,-0.889243 -3.52342,-0.889243 h -1.2248 q -2.6174,0 -3.48986,0.889243 -0.87247,0.889244 -0.87247,3.372413 z m 4.39588,10.788365 q -3.95965,0 -5.53679,-1.543591 -1.57715,-1.543592 -1.57715,-5.41935 v -4.194544 q 0,-3.892536 1.56037,-5.436128 1.57715,-1.543591 5.52002,-1.543591 h 1.2248 q 3.95965,0 5.5368,1.543591 1.57715,1.543592 1.57715,5.436128 v 2.66773 l -12.70108,0.01678 q -0.0168,0.268451 -0.0336,0.604014 0,0.318786 0,0.906022 0,2.734842 0.87247,3.67442 0.87246,0.922799 3.52342,0.922799 h 1.2248 q 2.36572,0 3.28852,-0.671127 0.9228,-0.687905 1.07381,-2.3825 h 2.71806 q -0.20134,2.869067 -1.8456,4.144208 -1.64426,1.275141 -5.20123,1.275141 z" />
      <path
         id="path855"
         style="font-style:normal;font-variant:normal;font-weight:normal;font-stretch:normal;font-size:34.3617px;font-family:'Square721 BT';-inkscape-font-specification:'Square721 BT, Normal';font-variant-ligatures:normal;font-variant-caps:normal;font-variant-numeric:normal;font-variant-east-asian:normal;fill:#ffffff;fill-opacity:1;stroke-width:0.238625"
         d="m 172.20289,84.379375 h 9.99979 V 83.69147 q 0,-2.483169 -0.88924,-3.372413 -0.88925,-0.889243 -3.52342,-0.889243 h -1.22481 q -2.61739,0 -3.48986,0.889243 -0.87246,0.889244 -0.87246,3.372413 z m 4.39588,10.788365 q -3.95965,0 -5.5368,-1.543591 -1.57715,-1.543592 -1.57715,-5.41935 v -4.194544 q 0,-3.892536 1.56037,-5.436128 1.57715,-1.543591 5.52002,-1.543591 h 1.22481 q 3.95965,0 5.5368,1.543591 1.57715,1.543592 1.57715,5.436128 v 2.66773 l -12.70108,0.01678 q -0.0168,0.268451 -0.0336,0.604014 0,0.318786 0,0.906022 0,2.734842 0.87247,3.67442 0.87246,0.922799 3.52341,0.922799 h 1.22481 q 2.36572,0 3.28852,-0.671127 0.9228,-0.687905 1.07381,-2.3825 h 2.71806 q -0.20134,2.869067 -1.8456,4.144208 -1.64426,1.275141 -5.20123,1.275141 z" />
      <path
         id="path857"
         style="font-style:normal;font-variant:normal;font-weight:normal;font-stretch:normal;font-size:34.3617px;font-family:'Square721 BT';-inkscape-font-specification:'Square721 BT, Normal';font-variant-ligatures:normal;font-variant-caps:normal;font-variant-numeric:normal;font-variant-east-asian:normal;fill:#ffffff;fill-opacity:1;stroke-width:0.238625"
         d="M 188.88049,79.496927 V 77.26543 h 2.16439 v -3.976427 h 2.61739 v 3.976427 h 8.65754 v 2.231497 h -8.65754 v 9.73134 q 0,2.080494 0.67113,2.835511 0.6879,0.73824 2.60061,0.73824 1.89594,0 2.55029,-0.721461 0.67112,-0.721462 0.67112,-2.85229 v -0.520123 h 2.65095 v 0.151003 q 0,3.724755 -1.24158,5.016674 -1.22481,1.291919 -5.11734,1.291919 -3.03685,0 -4.2281,-1.359032 -1.17447,-1.37581 -1.17447,-4.949561 v -9.36222 z" />
    </g>
  </g>
</svg>
