<!--?xml version="1.0" encoding="UTF-8" standalone="no"?-->
<svg xmlns:osb="http://www.openswatchbook.org/uri/2009/osb" xmlns:dc="http://purl.org/dc/elements/1.1/" xmlns:cc="http://creativecommons.org/ns#" xmlns:rdf="http://www.w3.org/1999/02/22-rdf-syntax-ns#" xmlns:svg="http://www.w3.org/2000/svg" xmlns="http://www.w3.org/2000/svg" id="svg8" version="1.1" viewBox="0 0 210 297" height="297mm" width="210mm" style="">
  <defs id="defs2">
    <linearGradient osb:paint="solid" id="linearGradient854">
      <stop id="stop852" offset="0" style="stop-color:#000000;stop-opacity:1;"></stop>
    </linearGradient>
  </defs>
  <metadata id="metadata5">
    <rdf:rdf>
      <cc:work rdf:about="">
        <dc:format>image/svg+xml</dc:format>
        <dc:type rdf:resource="http://purl.org/dc/dcmitype/StillImage"></dc:type>
        <dc:title></dc:title>
      </cc:work>
    </rdf:rdf>
  </metadata>
  <g id="layer1">
    <g style="font-style:normal;font-variant:normal;font-weight:normal;font-stretch:normal;font-size:38.1px;line-height:0;font-family:'Mekanik LET';-inkscape-font-specification:'Mekanik LET, Normal';font-variant-ligatures:normal;font-variant-caps:normal;font-variant-numeric:normal;font-variant-east-asian:normal;letter-spacing:1.46579px;word-spacing:0px;fill:#000000;fill-opacity:0;stroke:#000000;stroke-width:1.565;stroke-miterlimit:4;stroke-dasharray:none;stroke-opacity:1" id="text868" aria-label="WAZZEDO">
      <path d="m 68.005859,90.787109 c -0.03358,1.105679 -0.05757,2.695645 1.221543,3.116431 1.163056,0.315747 2.560588,0.443288 3.628067,-0.217993 0.413499,-0.453732 0.801254,-0.680414 1.229973,-0.09582 1.102701,0.768025 2.618466,0.666946 3.837707,0.259701 1.283166,-0.57201 1.086318,-2.205565 1.098335,-3.362315 0,-6.954036 0,-13.908073 0,-20.862109 -0.492949,0.120983 -1.584187,-0.356323 -1.341796,0.5 -10e-7,7.677734 0,15.355469 0,23.033203 -1.158855,0 -2.317709,0 -3.476563,0 0,-7.844401 0,-15.688802 0,-23.533203 -0.498036,0.121756 -1.5964,-0.356816 -1.359375,0.5 0,7.677734 0,15.355469 0,23.033203 -1.158854,0 -2.317708,0 -3.476562,0 -10e-7,-7.844401 0,-15.688802 0,-23.533203 -0.498591,0.121853 -1.597774,-0.356888 -1.361329,0.5 0,6.88737 0,13.77474 0,20.662109 z" style="font-style: normal; font-weight: normal; font-stretch: normal; font-size: 38.1px; font-family: &quot;Mekanik LET&quot;; font-variant: normal; fill: rgb(0, 0, 0); fill-opacity: 0; stroke: rgb(0, 0, 0); stroke-width: 1.565; stroke-miterlimit: 4; stroke-opacity: 1; stroke-linejoin: round; stroke-linecap: round;" id="path870" class="uttYieny_0"></path>
      <path d="m 86.421875,69.449219 c -1.002423,0.01983 -2.33821,0.292348 -2.514205,1.481838 -0.305492,1.705489 -0.07692,3.45999 -0.147904,5.185349 0,5.948177 0,11.896354 0,17.844532 0.498035,-0.121756 1.596399,0.356816 1.359375,-0.5 0,-4.069011 0,-8.138021 0,-12.207032 1.158854,0 2.317708,0 3.476562,0 0,4.235677 0,8.471354 0,12.707032 0.49859,-0.121853 1.597774,0.356887 1.361328,-0.5 -0.01603,-7.308293 0.03197,-14.618633 -0.02382,-21.925656 -7.06e-4,-0.994065 -0.734611,-1.886704 -1.743771,-1.980598 -0.580116,-0.120211 -1.17764,-0.123739 -1.767562,-0.105465 z m -0.773437,0.978515 c 0.982421,0 1.964843,0 2.947265,0 0,3.298177 0,6.596355 0,9.894532 -1.158854,0 -2.317708,0 -3.476562,0 0,-3.298177 0,-6.596355 0,-9.894532 0.176432,0 0.352864,0 0.529297,0 z" style="font-style: normal; font-weight: normal; font-stretch: normal; font-size: 38.1px; font-family: &quot;Mekanik LET&quot;; font-variant: normal; fill: rgb(0, 0, 0); fill-opacity: 0; stroke: rgb(0, 0, 0); stroke-width: 1.565; stroke-miterlimit: 4; stroke-opacity: 1; stroke-linejoin: round; stroke-linecap: round;" id="path872" class="uttYieny_1"></path>
      <path d="m 94.601562,70.556641 c 1.369141,0 2.738282,0 4.107422,0 -1.457219,7.801397 -2.914031,15.60287 -4.371093,23.404297 1.998698,-10e-7 3.997395,0 5.996089,0 0.1698,-0.780345 -0.0979,-1.123155 -0.899996,-0.931641 -1.193489,0 -2.386979,0 -3.580468,0 1.457766,-7.801417 2.91535,-15.602867 4.373044,-23.404297 -1.874998,0 -3.749997,0 -5.624998,0 0,0.310547 10e-7,0.621094 0,0.931641 z" style="font-style: normal; font-weight: normal; font-stretch: normal; font-size: 38.1px; font-family: &quot;Mekanik LET&quot;; font-variant: normal; fill: rgb(0, 0, 0); fill-opacity: 0; stroke: rgb(0, 0, 0); stroke-width: 1.565; stroke-miterlimit: 4; stroke-opacity: 1; stroke-linejoin: round; stroke-linecap: round;" id="path874" class="uttYieny_2"></path>
      <path d="m 104.47656,70.556641 c 1.36914,0 2.73828,0 4.10742,0 -1.45776,7.801416 -2.91535,15.602867 -4.37304,23.404297 1.9987,-10e-7 3.99739,0 5.99609,0 0.1698,-0.780345 -0.0979,-1.123155 -0.9,-0.931641 -1.19284,0 -2.38568,0 -3.57851,0 1.45721,-7.801397 2.91403,-15.602871 4.37109,-23.404297 -1.87435,0 -3.7487,0 -5.62305,0 0,0.310547 0,0.621094 0,0.931641 z" style="font-style: normal; font-weight: normal; font-stretch: normal; font-size: 38.1px; font-family: &quot;Mekanik LET&quot;; font-variant: normal; fill: rgb(0, 0, 0); fill-opacity: 0; stroke: rgb(0, 0, 0); stroke-width: 1.565; stroke-miterlimit: 4; stroke-opacity: 1; stroke-linejoin: round; stroke-linecap: round;" id="path876" class="uttYieny_3"></path>
      <path d="m 114.55469,93.960938 c 1.55143,-10e-7 3.10286,0 4.65429,0 0.1698,-0.780345 -0.0979,-1.123155 -0.9,-0.931641 -0.79765,0 -1.59531,0 -2.39296,0 0,-3.92513 0,-7.850261 0,-11.775391 1.09765,0 2.19531,0 3.29296,0 0.1698,-0.780344 -0.0979,-1.123154 -0.9,-0.93164 -0.79765,0 -1.59531,0 -2.39296,0 0,-3.255209 0,-6.510417 0,-9.765625 1.09765,0 2.19531,0 3.29296,0 0.1698,-0.780345 -0.0979,-1.123155 -0.9,-0.931641 -1.25143,0 -2.50286,0 -3.75429,0 0,8.111979 0,16.223958 0,24.335938 z" style="font-style: normal; font-weight: normal; font-stretch: normal; font-size: 38.1px; font-family: &quot;Mekanik LET&quot;; font-variant: normal; fill: rgb(0, 0, 0); fill-opacity: 0; stroke: rgb(0, 0, 0); stroke-width: 1.565; stroke-miterlimit: 4; stroke-opacity: 1; stroke-linejoin: round; stroke-linecap: round;" id="path878" class="uttYieny_4"></path>
      <path d="m 123.68555,93.960938 c 1.61643,-0.08044 3.29683,0.198056 4.86718,-0.269532 0.89067,-0.316266 1.36918,-1.221485 1.30145,-2.137335 0.0612,-6.388676 0.0209,-12.780079 0.0201,-19.169635 0.0382,-0.903066 -0.13165,-1.949425 -1.04419,-2.37467 -1.26428,-0.585195 -2.73155,-0.306982 -4.08438,-0.384766 -0.6985,-0.07845 -1.31824,-0.07814 -1.06015,0.8 0,7.845313 0,15.690625 0,23.535938 z m 1.88867,-23.404297 c 0.98307,0 1.96614,0 2.94922,0 0,7.490885 0,14.98177 0,22.472656 -1.15951,0 -2.31901,0 -3.47852,0 0,-7.490886 0,-14.981771 0,-22.472656 0.17643,0 0.35287,0 0.5293,0 z" style="font-style: normal; font-weight: normal; font-stretch: normal; font-size: 38.1px; font-family: &quot;Mekanik LET&quot;; font-variant: normal; fill: rgb(0, 0, 0); fill-opacity: 0; stroke: rgb(0, 0, 0); stroke-width: 1.565; stroke-miterlimit: 4; stroke-opacity: 1; stroke-linejoin: round; stroke-linecap: round;" id="path880" class="uttYieny_5"></path>
      <path d="m 137.14453,69.451172 c -1.07412,-0.05094 -2.34182,0.491682 -2.47819,1.684438 -0.23704,1.774062 -0.0681,3.727491 -0.11946,5.590562 0.0165,5.107852 -0.0329,10.217951 0.0244,15.324419 -0.0175,1.035758 0.78755,1.912885 1.81518,1.995491 1.22663,0.13504 2.64714,0.260023 3.71312,-0.471863 0.94734,-0.971628 0.55129,-2.48275 0.64453,-3.704688 -0.0164,-6.120884 0.0327,-12.243978 -0.0242,-18.363501 0.001,-1.027148 -0.80564,-1.881888 -1.82145,-1.970874 -0.57875,-0.102136 -1.16834,-0.10475 -1.75391,-0.08398 z m -0.70898,0.976562 c 0.98242,0 1.96484,0 2.94726,0 0,7.576823 0,15.153646 0,22.730469 -1.15885,0 -2.31771,0 -3.47656,0 0,-7.576823 0,-15.153646 0,-22.730469 0.17643,0 0.35286,0 0.5293,0 z" style="font-style: normal; font-weight: normal; font-stretch: normal; font-size: 38.1px; font-family: &quot;Mekanik LET&quot;; font-variant: normal; fill: rgb(0, 0, 0); fill-opacity: 0; stroke: rgb(0, 0, 0); stroke-width: 1.565; stroke-miterlimit: 4; stroke-opacity: 1; stroke-linejoin: round; stroke-linecap: round;" id="path882" class="uttYieny_6"></path>
    </g>
  </g>
<style data-made-with="vivus-instant">.uttYieny_0{stroke-dasharray:164 166;stroke-dashoffset:165;animation:uttYieny_draw 806ms linear 0ms forwards;}.uttYieny_1{stroke-dasharray:112 114;stroke-dashoffset:113;animation:uttYieny_draw 552ms linear 806ms forwards;}.uttYieny_2{stroke-dasharray:70 72;stroke-dashoffset:71;animation:uttYieny_draw 347ms linear 1358ms forwards;}.uttYieny_3{stroke-dasharray:70 72;stroke-dashoffset:71;animation:uttYieny_draw 347ms linear 1706ms forwards;}.uttYieny_4{stroke-dasharray:71 73;stroke-dashoffset:72;animation:uttYieny_draw 351ms linear 2053ms forwards;}.uttYieny_5{stroke-dasharray:111 113;stroke-dashoffset:112;animation:uttYieny_draw 547ms linear 2405ms forwards;}.uttYieny_6{stroke-dasharray:111 113;stroke-dashoffset:112;animation:uttYieny_draw 547ms linear 2952ms forwards;}@keyframes uttYieny_draw{100%{stroke-dashoffset:0;}}@keyframes uttYieny_fade{0%{stroke-opacity:1;}94.8051948051948%{stroke-opacity:1;}100%{stroke-opacity:0;}}</style></svg>
