<?xml version="1.0" encoding="UTF-8" standalone="no"?>
<svg
   xmlns:osb="http://www.openswatchbook.org/uri/2009/osb"
   xmlns:dc="http://purl.org/dc/elements/1.1/"
   xmlns:cc="http://creativecommons.org/ns#"
   xmlns:rdf="http://www.w3.org/1999/02/22-rdf-syntax-ns#"
   xmlns:svg="http://www.w3.org/2000/svg"
   xmlns="http://www.w3.org/2000/svg"
   xmlns:xlink="http://www.w3.org/1999/xlink"
   xmlns:sodipodi="http://sodipodi.sourceforge.net/DTD/sodipodi-0.dtd"
   xmlns:inkscape="http://www.inkscape.org/namespaces/inkscape"
   inkscape:version="1.0 (4035a4fb49, 2020-05-01)"
   sodipodi:docname="logoNameC.svg"
   xml:space="preserve"
   enable-background="new 0 0 1500 500"
   viewBox="0 0 1500 500"
   height="500px"
   width="1500px"
   y="0px"
   x="0px"
   id="レイヤー_1"
   version="1.1"><metadata
   id="metadata27"><rdf:RDF><cc:Work
       rdf:about=""><dc:format>image/svg+xml</dc:format><dc:type
         rdf:resource="http://purl.org/dc/dcmitype/StillImage" /><dc:title></dc:title></cc:Work></rdf:RDF></metadata><defs
   id="defs25"><pattern
     inkscape:collect="always"
     patternUnits="userSpaceOnUse"
     width="2"
     height="1"
     patternTransform="translate(0,0) scale(10,10)"
     id="Strips1_1"
     inkscape:stockid="Stripes 1:1"
     inkscape:isstock="true"><rect
       style="fill:black;stroke:none"
       x="0"
       y="-0.5"
       width="1"
       height="2"
       id="rect1831" /></pattern><linearGradient
     osb:paint="solid"
     id="linearGradient2809"><stop
       id="stop2807"
       offset="0"
       style="stop-color:#000000;stop-opacity:1;" /></linearGradient><linearGradient
     osb:paint="solid"
     id="linearGradient2791"><stop
       id="stop2789"
       offset="0"
       style="stop-color:#000000;stop-opacity:1;" /></linearGradient><linearGradient
     osb:paint="solid"
     id="linearGradient839"><stop
       id="stop837"
       offset="0"
       style="stop-color:#39273c;stop-opacity:1;" /></linearGradient><linearGradient
     gradientUnits="userSpaceOnUse"
     y2="928.10045"
     x2="1416.5695"
     y1="928.10045"
     x1="-11.412875"
     id="linearGradient845"
     xlink:href="#linearGradient839"
     inkscape:collect="always" /></defs><sodipodi:namedview
   inkscape:current-layer="レイヤー_1"
   inkscape:window-maximized="1"
   inkscape:window-y="-8"
   inkscape:window-x="-8"
   inkscape:cy="185.02539"
   inkscape:cx="750"
   inkscape:zoom="0.24090633"
   showgrid="false"
   id="namedview23"
   inkscape:window-height="705"
   inkscape:window-width="1360"
   inkscape:pageshadow="2"
   inkscape:pageopacity="0"
   guidetolerance="10"
   gridtolerance="10"
   objecttolerance="10"
   borderopacity="1"
   bordercolor="#666666"
   pagecolor="#ffffff"
   inkscape:document-rotation="0" />


<g
   inkscape:export-ydpi="96.029999"
   inkscape:export-xdpi="96.029999"
   style="font-style:normal;font-variant:normal;font-weight:normal;font-stretch:normal;font-size:791.235px;line-height:0;font-family:'Mekanik LET';-inkscape-font-specification:'Mekanik LET, Normal';font-variant-ligatures:normal;font-variant-caps:normal;font-variant-numeric:normal;font-variant-east-asian:normal;letter-spacing:8.62447px;word-spacing:0px;stroke-width:1.97809;stroke:url(#linearGradient845);stroke-opacity:1;fill-opacity:1;fill:#000000"
   id="text854"
   transform="matrix(1.0265115,0,0,0.81717283,30.967181,-505.34446)"
   aria-label="WAZZEDO"><path
     d="m -10.423828,654.28125 c 2.75e-4,159.81077 -3.73e-4,319.62168 0.02991,479.43235 0.209433,13.2026 2.2038553,26.6355 7.9462386,38.64 5.8425186,12.1598 16.0833754,22.236 28.5557354,27.4751 11.579263,5.0959 24.265788,7.0507 36.818837,7.7258 9.764356,0.4757 19.57209,0.3194 29.300883,-0.6591 12.153874,-1.4399 24.182454,-5.4085 34.166844,-12.6112 0.43351,-0.2117 0.85503,-0.7763 1.28117,-0.811 8.01553,5.5359 17.03699,9.6889 26.58358,11.728 11.20924,2.5613 22.78885,2.7656 34.23319,2.472 13.25183,-0.4768 26.64615,-2.444 38.92674,-7.6426 8.77452,-3.7625 16.91544,-9.416 22.64602,-17.1378 7.06713,-9.283 11.05991,-20.5712 12.96357,-31.9971 2.19329,-12.65 1.54356,-25.5344 1.62931,-38.3098 0,-153.44788 0,-306.8958 0,-460.34371 -24.72721,0 -49.45442,0 -74.18164,0 0,162.90885 0,325.81771 0,488.72661 -8.62695,0 -17.2539,-1e-4 -25.88086,0 0,-162.9089 0,-325.81776 0,-488.72661 -24.85612,0 -49.71224,0 -74.568358,0 0,162.90885 0,325.81771 0,488.72661 -8.627604,-1e-4 -17.255209,0 -25.882813,0 0,-162.9089 0,-325.81776 0,-488.72661 -24.85612,0 -49.712239,0 -74.568359,0 0,0.67969 0,1.35937 0,2.03906 z"
     style="stroke-width:1.97809;stroke:url(#linearGradient845);stroke-opacity:1;fill-opacity:1;fill:#000000"
     id="path856" /><path
     d="m 380.54688,648.39258 c -14.61662,0.21697 -29.40359,1.47499 -43.37305,6.03125 -9.33185,3.10274 -18.31074,7.99322 -24.92713,15.39292 -7.53729,8.39025 -11.93274,19.13507 -14.34632,30.04141 -2.8125,12.35391 -3.14861,25.09586 -2.98632,37.71411 0,155.45833 0,310.91663 0,466.37503 24.85612,0 49.71224,0 74.56836,0 0,-87.9577 0,-175.9154 0,-263.87308 8.62695,0 17.25391,0 25.88086,0 0,87.95768 0,175.91538 0,263.87308 24.85677,0 49.71354,0 74.57031,0 -0.002,-160.3609 -0.002,-320.72198 -0.0299,-481.08279 -0.21088,-13.10598 -2.19487,-26.436 -7.88522,-38.35694 -5.13213,-10.76572 -13.73611,-19.90816 -24.37233,-25.36471 -10.65773,-5.69045 -22.63697,-8.37062 -34.5612,-9.73265 -7.48106,-0.82772 -15.01511,-1.06897 -22.53802,-1.01763 z m 14.8164,66.82812 c 0,53.05664 0,106.11328 0,159.16992 -8.62695,10e-6 -17.2539,10e-6 -25.88086,0 0,-53.05664 0,-106.11328 0,-159.16992 8.62696,0 17.25391,0 25.88086,0 z"
     style="stroke-width:1.97809;stroke:url(#linearGradient845);stroke-opacity:1;fill-opacity:1;fill:#000000"
     id="path858" /><path
     d="m 498.25586,654.28125 c 0,21.21484 0,42.42969 0,63.64453 26.85677,0 53.71354,0 80.57031,0 -30.26244,162.00715 -60.52428,324.01442 -90.78711,486.02152 58.52604,0 117.05209,0 175.57813,0 0,-21.8946 0,-43.7891 0,-65.6836 -29.43229,0 -58.86459,0 -88.29688,0 30.26245,-162.00718 60.52429,-324.01444 90.78711,-486.02151 -55.95052,0 -111.90104,0 -167.85156,0 0,0.67969 0,1.35937 0,2.03906 z"
     style="stroke-width:1.97842378;stroke:url(#linearGradient845);stroke-opacity:1;fill-opacity:1;fill:#000000;stroke-miterlimit:4;stroke-dasharray:none;stroke-linejoin:round;stroke-linecap:round"
     id="path860" /><path
     d="m 681.50977,654.28125 c 0,21.21484 0,42.42969 0,63.64453 26.85677,0 53.71354,0 80.57031,0 -30.26245,162.00715 -60.52429,324.01442 -90.78711,486.02152 58.52539,0 117.05078,0 175.57617,0 0,-21.8946 0,-43.7891 0,-65.6836 -29.43229,0 -58.86458,0 -88.29687,0 30.26244,-162.00718 60.52428,-324.01444 90.78711,-486.02151 -55.94987,0 -111.89974,0 -167.84961,0 0,0.67969 0,1.35937 0,2.03906 z"
     style="stroke-width:1.97809;stroke:url(#linearGradient845);stroke-opacity:1;fill-opacity:1.0;fill:url(#Strips1_1)"
     id="path862" /><path
     d="m 869.01172,654.28125 c 0,183.22201 0,366.44405 0,549.66605 47.65039,0 95.30078,0 142.95118,0 0,-21.8946 0,-43.7891 0,-65.6836 -22.79428,0 -45.58855,0 -68.38282,0 0,-66.0632 0,-132.1263 0,-198.18948 22.79427,0 45.58854,0 68.38282,0 0,-21.89453 0,-43.78906 0,-65.6836 -22.79428,0 -45.58855,10e-6 -68.38282,0 0,-52.15494 0,-104.30989 0,-156.46484 22.79427,0 45.58854,0 68.38282,0 0,-21.89453 0,-43.78906 0,-65.68359 -47.6504,0 -95.30079,0 -142.95118,0 0,0.67969 0,1.35937 0,2.03906 z"
     style="stroke-width:1.97809;stroke:url(#Strips1_1);stroke-opacity:1;fill-opacity:1;fill:#000000"
     id="path864" /><path
     d="m 1085.1113,652.24609 c -16.1015,-0.007 -32.2031,-0.003 -48.3047,-0.004 0,183.90299 0,367.80601 0,551.70901 26.9541,-0.038 53.9089,0.084 80.8624,-0.1225 12.4187,-0.2355 24.9047,-0.5017 37.17,-2.6406 15.2664,-2.9605 29.662,-10.6593 40.3145,-22.0275 6.0275,-6.4337 10.9277,-14.1677 12.9535,-22.8244 1.9387,-8.3648 2.742,-16.9465 3.2264,-25.5045 0.7055,-13.9747 0.4331,-27.9732 0.4908,-41.9598 0,-116.17929 0.016,-232.35869 -0.042,-348.53786 -0.1762,-13.25327 -0.4558,-26.61129 -3.1468,-39.63706 -2.0853,-9.10425 -6.9778,-17.41808 -13.4156,-24.12898 -6.3661,-6.72033 -14.0783,-12.09939 -22.3673,-16.17809 -4.3479,-2.1118 -9.0059,-3.4913 -13.7267,-4.4766 -13.9446,-3.03689 -28.2823,-3.2987 -42.493,-3.56872 -10.5065,-0.1378 -21.0141,-0.10689 -31.5212,-0.0985 z m 52.1485,65.67969 c 0,140.11263 0,280.22526 0,420.33792 -8.627,0 -17.2539,0 -25.8809,0 0,-140.11266 0,-280.22529 0,-420.33792 8.627,0 17.2539,0 25.8809,0 z"
     style="stroke-width:1.97809;stroke:url(#linearGradient845);stroke-opacity:1;fill-opacity:1;fill:#000000"
     id="path866" /><path
     d="m 1326.0488,648.39453 c -13.4482,0.22292 -27.0448,1.0491 -40.0396,4.7617 -12.8717,4.12995 -24.0969,12.69935 -32.1917,23.44758 -6.1888,8.52457 -9.4348,18.82436 -11.013,29.14702 -2.7076,17.37303 -2.1939,35.01094 -2.2635,52.53276 0,125.08408 0,250.16831 0.034,375.25231 0.2272,13.075 2.2322,26.3695 7.9329,38.2503 5.1497,10.7625 13.7835,19.8805 24.4302,25.3202 10.8407,5.7484 23.0186,8.4353 35.1401,9.7306 13.853,1.4497 27.8467,1.187 41.6988,-0.129 11.109,-1.1808 22.2738,-3.4613 32.3641,-8.4077 10.6863,-5.3318 19.8399,-13.9938 25.0522,-24.806 5.0391,-10.1919 7.1426,-21.5624 7.9616,-32.8247 0.715,-10.8521 0.2824,-21.7335 0.4054,-32.5993 0,-128.73393 0,-257.46804 -0.038,-386.20187 -0.2341,-13.14207 -2.3729,-26.51416 -8.3171,-38.35671 -5.33,-10.58064 -14.0439,-19.46571 -24.6625,-24.76407 -10.9117,-5.64786 -23.1174,-8.26693 -35.264,-9.5071 -7.051,-0.72001 -14.1458,-0.89813 -21.2298,-0.84602 z m 14.9395,66.82617 c 0,141.91602 0,283.83203 0,425.7481 -8.627,0 -17.2539,0 -25.8809,0 0,-141.91607 0,-283.83208 0,-425.7481 8.627,0 17.2539,0 25.8809,0 z"
     style="stroke-width:1.97809;stroke:url(#linearGradient845);stroke-opacity:1;fill-opacity:1;fill:#000000"
     id="path868" /></g></svg>
