<!--?xml version="1.0" encoding="UTF-8" standalone="no"?-->
<svg xmlns:dc="http://purl.org/dc/elements/1.1/" xmlns:cc="http://creativecommons.org/ns#" xmlns:rdf="http://www.w3.org/1999/02/22-rdf-syntax-ns#" xmlns:svg="http://www.w3.org/2000/svg" xmlns="http://www.w3.org/2000/svg" id="svg8" version="1.1" viewBox="0 0 420 297" height="297mm" width="420mm" style="">
  <defs id="defs2"></defs>
  <metadata id="metadata5">
    <rdf:rdf>
      <cc:work rdf:about="">
        <dc:format>image/svg+xml</dc:format>
        <dc:type rdf:resource="http://purl.org/dc/dcmitype/StillImage"></dc:type>
        <dc:title></dc:title>
      </cc:work>
    </rdf:rdf>
  </metadata>
  <g id="layer1">
    <g style="font-style:normal;font-variant:normal;font-weight:normal;font-stretch:normal;font-size:38.1px;line-height:0;font-family:'Pump Demi Bold LET';-inkscape-font-specification:'Pump Demi Bold LET, Normal';font-variant-ligatures:normal;font-variant-caps:normal;font-variant-numeric:normal;font-variant-east-asian:normal;letter-spacing:1.15358px;word-spacing:0px;fill:#ffffff;fill-opacity:0;stroke:#ffffff;stroke-width:0.765;stroke-miterlimit:4;stroke-dasharray:none;stroke-opacity:1" id="text835" aria-label="WAZZEDO">
      <path id="path837" style="font-style: normal; font-weight: normal; font-stretch: normal; font-size: 38.1px; font-family: &quot;Pump Demi Bold LET&quot;; font-variant: normal; fill: rgb(255, 255, 255); fill-opacity: 0; stroke: rgb(255, 255, 255); stroke-width: 0.765; stroke-miterlimit: 4; stroke-opacity: 1;" d="M 95.286986,103.83794 V 89.364404 h 6.790284 v 14.733986 q 0,0.37207 0.0186,0.5395 v 0.72554 q 0.093,3.16259 2.6417,3.16259 0.78135,0 1.41387,-0.40927 0.66972,-0.40928 0.98598,-1.07901 0.31626,-0.72553 0.31626,-2.38125 v -0.5581 -14.733986 h 6.77168 v 14.733986 0.59531 q 0,1.0418 0.11162,1.63711 0.0744,0.5581 0.40928,1.0418 0.76275,1.15341 2.17661,1.15341 1.61851,0 2.34405,-1.37666 0.33486,-0.65112 0.33486,-2.32544 v -0.72553 -14.733986 h 6.77168 v 14.473536 1.11621 q -0.0372,2.39985 -0.63252,4.07417 -0.65112,1.73013 -1.95337,3.08818 -1.45107,1.50689 -3.34863,2.30684 -1.91616,0.83716 -3.98115,0.83716 -3.01377,0 -5.67408,-1.78594 -2.6417,1.78594 -5.65546,1.78594 -2.25103,0 -4.26021,-0.96739 -2.046386,-0.94878 -3.44165,-2.6603 -0.539502,-0.68833 -0.967383,-1.48828 -0.409277,-0.78135 -0.651123,-1.5813 -0.279053,-0.87436 -0.390674,-1.76733 -0.130224,-0.83716 -0.130224,-2.0836 z" class="lJlkANJw_0"></path>
      <path id="path839" style="font-style: normal; font-weight: normal; font-stretch: normal; font-size: 38.1px; font-family: &quot;Pump Demi Bold LET&quot;; font-variant: normal; fill: rgb(255, 255, 255); fill-opacity: 0; stroke: rgb(255, 255, 255); stroke-width: 0.765; stroke-miterlimit: 4; stroke-opacity: 1;" d="m 138.13104,102.052 h 6.12056 v -2.455663 q 0,-1.637109 -0.37207,-2.43706 -0.35347,-0.706934 -1.07901,-1.172022 -0.74414,-0.427881 -1.5999,-0.427881 -0.91157,0 -1.67432,0.502295 -0.76274,0.502295 -1.0976,1.32085 -0.29766,0.669726 -0.29766,2.213818 z m 12.91084,-1.50688 v 14.21308 h -6.79028 v -6.93911 h -6.12056 v 6.93911 h -6.79028 v -14.21308 -0.93018 q 0,-1.692919 0.24184,-2.902148 0.22325,-1.227832 0.72554,-2.325439 0.5023,-1.097608 1.28364,-2.00918 1.37666,-1.674316 3.36724,-2.604492 1.95337,-0.911572 4.2416,-0.911572 2.19522,0 4.11138,0.837158 1.91616,0.855762 3.33003,2.492871 1.26504,1.469678 1.84174,3.181201 0.55811,1.69292 0.55811,4.241601 z" class="lJlkANJw_1"></path>
      <path id="path841" style="font-style: normal; font-weight: normal; font-stretch: normal; font-size: 38.1px; font-family: &quot;Pump Demi Bold LET&quot;; font-variant: normal; fill: rgb(255, 255, 255); fill-opacity: 0; stroke: rgb(255, 255, 255); stroke-width: 0.765; stroke-miterlimit: 4; stroke-opacity: 1;" d="m 164.84585,108.9167 h 9.07852 v 5.8415 h -19.05 l 8.63203,-19.552293 h -8.25996 v -5.841503 h 18.15703 z" class="lJlkANJw_2"></path>
      <path id="path843" style="font-style: normal; font-weight: normal; font-stretch: normal; font-size: 38.1px; font-family: &quot;Pump Demi Bold LET&quot;; font-variant: normal; fill: rgb(255, 255, 255); fill-opacity: 0; stroke: rgb(255, 255, 255); stroke-width: 0.765; stroke-miterlimit: 4; stroke-opacity: 1;" d="m 186.31447,108.9167 h 9.07851 v 5.8415 h -19.05 l 8.63203,-19.552293 h -8.25996 v -5.841503 h 18.15703 z" class="lJlkANJw_3"></path>
      <path id="path845" style="font-style: normal; font-weight: normal; font-stretch: normal; font-size: 38.1px; font-family: &quot;Pump Demi Bold LET&quot;; font-variant: normal; fill: rgb(255, 255, 255); fill-opacity: 0; stroke: rgb(255, 255, 255); stroke-width: 0.765; stroke-miterlimit: 4; stroke-opacity: 1;" d="m 209.19695,109.02832 h 5.20899 v 5.72988 h -8.03672 -1.0418 q -3.36723,-0.093 -5.35781,-2.28823 -0.87436,-0.98599 -1.32085,-2.19522 -0.46509,-1.17202 -0.46509,-2.39985 0,-3.40444 3.08819,-5.8229 -2.66031,-2.269628 -2.66031,-5.525243 0,-1.227832 0.42788,-2.455664 0.40928,-1.172021 1.22784,-2.158008 0.81855,-0.985986 1.84174,-1.562695 1.69292,-0.985986 4.26021,-0.985986 h 0.46509 7.57163 v 5.729882 h -5.20899 -1.00459 q -1.0604,0.05581 -1.65571,0.595313 -0.61391,0.558105 -0.61391,1.43247 0,0.911573 0.68833,1.488282 0.66972,0.613916 1.67431,0.613916 h 0.85576 5.2648 v 5.674073 h -5.2648 -0.5395 q -1.09761,0.0372 -1.73013,0.57671 -0.65112,0.59531 -0.65112,1.48828 0,0.87436 0.65112,1.46968 0.65113,0.59531 1.61851,0.59531 z" class="lJlkANJw_4"></path>
      <path id="path847" style="font-style: normal; font-weight: normal; font-stretch: normal; font-size: 38.1px; font-family: &quot;Pump Demi Bold LET&quot;; font-variant: normal; fill: rgb(255, 255, 255); fill-opacity: 0; stroke: rgb(255, 255, 255); stroke-width: 0.765; stroke-miterlimit: 4; stroke-opacity: 1;" d="m 226.29374,114.7582 h -6.79028 V 89.364404 h 6.3624 0.81856 q 3.75791,0 6.00893,0.669726 2.26963,0.706934 4.26021,2.418457 1.35805,1.190625 2.36264,2.716113 0.93018,1.413868 1.48829,3.218409 0.50229,1.730131 0.50229,3.609081 0,1.74873 -0.44648,3.40444 -0.46509,1.69292 -1.30225,3.10679 -0.85576,1.45107 -2.06499,2.6231 -1.20923,1.19062 -2.71611,2.00918 -1.5813,0.87436 -3.12539,1.24643 -1.5441,0.37207 -3.6835,0.37207 h -0.5395 v -6.77168 h 0.70693 q 1.89756,0 3.36724,-0.72553 1.45107,-0.70694 2.26963,-2.04639 0.78134,-1.32085 0.78134,-3.06958 0,-1.87896 -0.87436,-3.292824 -0.85576,-1.37666 -2.49287,-2.139404 -1.5999,-0.74414 -3.75791,-0.74414 h -1.13482 z" class="lJlkANJw_5"></path>
      <path id="path849" style="font-style: normal; font-weight: normal; font-stretch: normal; font-size: 38.1px; font-family: &quot;Pump Demi Bold LET&quot;; font-variant: normal; fill: rgb(255, 255, 255); fill-opacity: 0; stroke: rgb(255, 255, 255); stroke-width: 0.765; stroke-miterlimit: 4; stroke-opacity: 1;" d="m 251.25983,102.052 q 0,1.74873 0.87436,3.23701 0.87437,1.46968 2.34405,2.34405 1.48828,0.87436 3.2184,0.87436 1.74873,0 3.23702,-0.87436 1.50688,-0.87437 2.36264,-2.34405 0.85576,-1.46968 0.85576,-3.23701 0,-1.76733 -0.85576,-3.237011 -0.85576,-1.469677 -2.36264,-2.344043 -1.46968,-0.855761 -3.23702,-0.855761 -1.74873,0 -3.2184,0.855761 -1.46968,0.855762 -2.34405,2.344043 -0.87436,1.488281 -0.87436,3.237011 z m -6.75308,0 q 0,-3.571874 1.76734,-6.62285 1.74873,-3.032373 4.81831,-4.799707 3.05097,-1.767334 6.60424,-1.767334 3.57188,0 6.62286,1.767334 3.06958,1.804541 4.81831,4.81831 1.76733,3.050977 1.76733,6.604247 0,3.57188 -1.76733,6.62285 -1.74873,3.03238 -4.81831,4.79971 -3.03238,1.78594 -6.62286,1.78594 -3.55327,0 -6.60424,-1.76734 -3.05098,-1.76733 -4.81831,-4.81831 -1.76734,-3.05097 -1.76734,-6.62285 z" class="lJlkANJw_6"></path>
    </g>
  </g>
<style data-made-with="vivus-instant">.lJlkANJw_0{stroke-dasharray:179 181;stroke-dashoffset:180;animation:lJlkANJw_draw 648ms linear 0ms forwards;}.lJlkANJw_1{stroke-dasharray:120 122;stroke-dashoffset:121;animation:lJlkANJw_draw 436ms linear 648ms forwards;}.lJlkANJw_2{stroke-dasharray:109 111;stroke-dashoffset:110;animation:lJlkANJw_draw 396ms linear 1084ms forwards;}.lJlkANJw_3{stroke-dasharray:109 111;stroke-dashoffset:110;animation:lJlkANJw_draw 396ms linear 1481ms forwards;}.lJlkANJw_4{stroke-dasharray:109 111;stroke-dashoffset:110;animation:lJlkANJw_draw 396ms linear 1877ms forwards;}.lJlkANJw_5{stroke-dasharray:131 133;stroke-dashoffset:132;animation:lJlkANJw_draw 475ms linear 2273ms forwards;}.lJlkANJw_6{stroke-dasharray:124 126;stroke-dashoffset:125;animation:lJlkANJw_draw 450ms linear 2749ms forwards;}@keyframes lJlkANJw_draw{100%{stroke-dashoffset:0;}}@keyframes lJlkANJw_fade{0%{stroke-opacity:1;}94.5945945945946%{stroke-opacity:1;}100%{stroke-opacity:0;}}</style></svg>
