<!--?xml version="1.0" encoding="UTF-8" standalone="no"?-->
<svg xmlns:dc="http://purl.org/dc/elements/1.1/" xmlns:cc="http://creativecommons.org/ns#" xmlns:rdf="http://www.w3.org/1999/02/22-rdf-syntax-ns#" xmlns:svg="http://www.w3.org/2000/svg" xmlns="http://www.w3.org/2000/svg" width="420mm" height="297mm" viewBox="0 0 420 297" version="1.1" id="svg8" style="">
  <defs id="defs2"></defs>
  <metadata id="metadata5">
    <rdf:rdf>
      <cc:work rdf:about="">
        <dc:format>image/svg+xml</dc:format>
        <dc:type rdf:resource="http://purl.org/dc/dcmitype/StillImage"></dc:type>
        <dc:title></dc:title>
      </cc:work>
    </rdf:rdf>
  </metadata>
  <g style="fill:#000000;fill-opacity:0;stroke:#000000;stroke-opacity:1;stroke-width:1.21179167;stroke-miterlimit:4;stroke-dasharray:none" id="layer1">
    <g aria-label="WAZZEDO" id="text835" style="font-style:normal;font-variant:normal;font-weight:normal;font-stretch:normal;font-size:79.375px;line-height:0;font-family:'Pump Demi Bold LET';-inkscape-font-specification:'Pump Demi Bold LET, Normal';font-variant-ligatures:normal;font-variant-caps:normal;font-variant-numeric:normal;font-variant-east-asian:normal;letter-spacing:1.15358px;word-spacing:0px;stroke-width:1.82371983;fill:#000000;fill-opacity:0;stroke:#000000;stroke-opacity:1;stroke-miterlimit:4;stroke-dasharray:none" transform="matrix(0.66446153,0,0,0.66446153,84.198323,65.057454)">
      <path d="M 19.78196,123.66508 V 93.511887 h 14.146424 v 30.695803 q 0,0.77514 0.03876,1.12396 v 1.51154 q 0.193787,6.58874 5.50354,6.58874 1.627808,0 2.945557,-0.85266 1.395264,-0.85266 2.054138,-2.24793 0.658875,-1.51153 0.658875,-4.96093 V 124.20769 93.511887 H 59.23692 v 30.695803 1.24023 q 0,2.17041 0.232543,3.41065 0.15503,1.16272 0.852662,2.17041 1.58905,2.40295 4.534607,2.40295 3.371887,0 4.883422,-2.86804 0.697632,-1.35651 0.697632,-4.84467 v -1.51153 -30.695803 h 14.107666 v 30.153193 2.32544 q -0.07751,4.9997 -1.317749,8.48786 -1.356506,3.60443 -4.069519,6.43371 -3.023071,3.13935 -6.976318,4.80591 -3.992005,1.74408 -8.294068,1.74408 -6.278686,0 -11.820983,-3.7207 -5.50354,3.7207 -11.782227,3.7207 -4.689636,0 -8.875427,-2.01538 -4.263306,-1.97662 -7.170105,-5.5423 -1.123963,-1.43402 -2.015381,-3.10058 -0.852661,-1.62781 -1.356506,-3.29437 -0.58136,-1.8216 -0.813904,-3.68195 -0.271302,-1.74408 -0.271302,-4.34082 z" style="font-style: normal; font-weight: normal; font-stretch: normal; font-size: 79.375px; font-family: &quot;Pump Demi Bold LET&quot;; font-variant: normal; stroke-width: 1.82372; fill: rgb(0, 0, 0); fill-opacity: 0; stroke: rgb(0, 0, 0); stroke-opacity: 1; stroke-miterlimit: 4;" id="path837" class="JEPCsqNG_0"></path>
      <path d="m 107.7907,119.94438 h 12.75116 v -5.11597 q 0,-3.41064 -0.77514,-5.0772 -0.73639,-1.47278 -2.24793,-2.44172 -1.55029,-0.89141 -3.33313,-0.89141 -1.89911,0 -3.48816,1.04644 -1.58905,1.04645 -2.28668,2.75177 -0.62012,1.39527 -0.62012,4.61212 z m 26.89759,-3.13934 v 29.61059 H 120.54186 V 131.95915 H 107.7907 v 14.45648 H 93.64428 v -29.61059 -1.93787 q 0,-3.52691 0.503846,-6.04614 0.465088,-2.55798 1.511535,-4.84467 1.046448,-2.28668 2.674256,-4.185787 2.868043,-3.488159 7.015073,-5.426025 4.06952,-1.899109 8.83667,-1.899109 4.57337,0 8.56537,1.744079 3.99201,1.782837 6.93756,5.193482 2.6355,3.06183 3.83698,6.6275 1.16272,3.52692 1.16272,8.83667 z" style="font-style: normal; font-weight: normal; font-stretch: normal; font-size: 79.375px; font-family: &quot;Pump Demi Bold LET&quot;; font-variant: normal; stroke-width: 1.82372; fill: rgb(0, 0, 0); fill-opacity: 0; stroke: rgb(0, 0, 0); stroke-opacity: 1; stroke-miterlimit: 4;" id="path839" class="JEPCsqNG_1"></path>
      <path d="m 162.19685,134.24583 h 18.91357 v 12.1698 h -39.6875 l 17.9834,-40.73394 H 142.19807 V 93.511887 h 37.82715 z" style="font-style: normal; font-weight: normal; font-stretch: normal; font-size: 79.375px; font-family: &quot;Pump Demi Bold LET&quot;; font-variant: normal; stroke-width: 1.82372; fill: rgb(0, 0, 0); fill-opacity: 0; stroke: rgb(0, 0, 0); stroke-opacity: 1; stroke-miterlimit: 4;" id="path841" class="JEPCsqNG_2"></path>
      <path d="M 205.67342,134.24583 H 224.587 v 12.1698 h -39.6875 l 17.9834,-40.73394 H 185.67465 V 93.511887 h 37.82714 z" style="font-style: normal; font-weight: normal; font-stretch: normal; font-size: 79.375px; font-family: &quot;Pump Demi Bold LET&quot;; font-variant: normal; stroke-width: 1.82372; fill: rgb(0, 0, 0); fill-opacity: 0; stroke: rgb(0, 0, 0); stroke-opacity: 1; stroke-miterlimit: 4;" id="path843" class="JEPCsqNG_3"></path>
      <path d="m 252.09556,134.47838 h 10.85205 v 11.93725 h -16.74316 -2.17041 q -7.01508,-0.19378 -11.16211,-4.76715 -1.8216,-2.05413 -2.75177,-4.57336 -0.96894,-2.44171 -0.96894,-4.9997 0,-7.09259 6.43372,-12.13104 -5.5423,-4.72839 -5.5423,-11.51092 0,-2.55799 0.89142,-5.11597 0.85266,-2.44171 2.55798,-4.49585 1.70533,-2.054138 3.83698,-3.255615 3.52692,-2.054138 8.87543,-2.054138 h 0.96893 15.77423 v 11.937253 h -10.85205 -2.0929 q -2.20916,0.11627 -3.4494,1.24024 -1.27899,1.16272 -1.27899,2.98431 0,1.89911 1.43402,3.10059 1.39526,1.27899 3.48816,1.27899 h 1.78284 10.96832 v 11.82098 h -10.96832 -1.12397 q -2.28668,0.0775 -3.60443,1.20148 -1.3565,1.24023 -1.3565,3.10059 0,1.82159 1.3565,3.06182 1.35651,1.24024 3.37189,1.24024 z" style="font-style: normal; font-weight: normal; font-stretch: normal; font-size: 79.375px; font-family: &quot;Pump Demi Bold LET&quot;; font-variant: normal; stroke-width: 1.82372; fill: rgb(0, 0, 0); fill-opacity: 0; stroke: rgb(0, 0, 0); stroke-opacity: 1; stroke-miterlimit: 4;" id="path845" class="JEPCsqNG_4"></path>
      <path d="M 286.46417,146.41563 H 272.31774 V 93.511887 h 13.25501 1.70532 q 7.82898,0 12.51862,1.395263 4.72839,1.472779 8.87542,5.038452 2.82929,2.480468 4.92218,5.658568 1.93787,2.94556 3.10059,6.70502 1.04645,3.60443 1.04645,7.51892 0,3.64319 -0.93018,7.09259 -0.96893,3.52692 -2.71301,6.47247 -1.78284,3.02307 -4.30207,5.46479 -2.51922,2.48046 -5.65856,4.18579 -3.29438,1.82159 -6.51123,2.59674 -3.21686,0.77514 -7.67396,0.77514 h -1.12396 v -14.10766 h 1.47278 q 3.95325,0 7.01508,-1.51154 3.02307,-1.47278 4.72839,-4.2633 1.62781,-2.75177 1.62781,-6.39496 0,-3.91449 -1.8216,-6.86005 -1.78283,-2.86804 -5.19348,-4.45709 -3.33313,-1.55029 -7.82898,-1.55029 h -2.36419 z" style="font-style: normal; font-weight: normal; font-stretch: normal; font-size: 79.375px; font-family: &quot;Pump Demi Bold LET&quot;; font-variant: normal; stroke-width: 1.82372; fill: rgb(0, 0, 0); fill-opacity: 0; stroke: rgb(0, 0, 0); stroke-opacity: 1; stroke-miterlimit: 4;" id="path847" class="JEPCsqNG_5"></path>
      <path d="m 337.22712,119.94438 q 0,3.64319 1.82159,6.74378 1.8216,3.06182 4.88343,4.88342 3.10058,1.82159 6.70501,1.82159 3.64319,0 6.74378,-1.82159 3.13934,-1.8216 4.92218,-4.88342 1.78284,-3.06183 1.78284,-6.74378 0,-3.68194 -1.78284,-6.74377 -1.78284,-3.06183 -4.92218,-4.88343 -3.06183,-1.78283 -6.74378,-1.78283 -3.64318,0 -6.70501,1.78283 -3.06183,1.78284 -4.88343,4.88343 -1.82159,3.10058 -1.82159,6.74377 z m -14.06891,0 q 0,-7.4414 3.68195,-13.79761 3.64319,-6.31744 10.03814,-9.999385 6.35621,-3.681946 13.75885,-3.681946 7.44141,0 13.79761,3.681946 6.39496,3.75946 10.03815,10.038145 3.68194,6.3562 3.68194,13.75885 0,7.44141 -3.68194,13.79761 -3.64319,6.31744 -10.03815,9.99939 -6.31744,3.7207 -13.79761,3.7207 -7.40264,0 -13.75885,-3.68194 -6.3562,-3.68195 -10.03814,-10.03815 -3.68195,-6.3562 -3.68195,-13.79761 z" style="font-style: normal; font-weight: normal; font-stretch: normal; font-size: 79.375px; font-family: &quot;Pump Demi Bold LET&quot;; font-variant: normal; stroke-width: 1.82372; fill: rgb(0, 0, 0); fill-opacity: 0; stroke: rgb(0, 0, 0); stroke-opacity: 1; stroke-miterlimit: 4;" id="path849" class="JEPCsqNG_6"></path>
    </g>
  </g>
<style data-made-with="vivus-instant">.JEPCsqNG_0{stroke-dasharray:372 374;stroke-dashoffset:373;animation:JEPCsqNG_draw 710ms ease-in-out 0ms forwards;}.JEPCsqNG_1{stroke-dasharray:249 251;stroke-dashoffset:250;animation:JEPCsqNG_draw 476ms ease-in-out 710ms forwards;}.JEPCsqNG_2{stroke-dasharray:227 229;stroke-dashoffset:228;animation:JEPCsqNG_draw 434ms ease-in-out 1186ms forwards;}.JEPCsqNG_3{stroke-dasharray:227 229;stroke-dashoffset:228;animation:JEPCsqNG_draw 434ms ease-in-out 1620ms forwards;}.JEPCsqNG_4{stroke-dasharray:226 228;stroke-dashoffset:227;animation:JEPCsqNG_draw 432ms ease-in-out 2054ms forwards;}.JEPCsqNG_5{stroke-dasharray:272 274;stroke-dashoffset:273;animation:JEPCsqNG_draw 519ms ease-in-out 2486ms forwards;}.JEPCsqNG_6{stroke-dasharray:258 260;stroke-dashoffset:259;animation:JEPCsqNG_draw 493ms ease-in-out 3006ms forwards;}@keyframes JEPCsqNG_draw{100%{stroke-dashoffset:0;}}@keyframes JEPCsqNG_fade{0%{stroke-opacity:1;}94.8051948051948%{stroke-opacity:1;}100%{stroke-opacity:0;}}</style></svg>
