<!--?xml version="1.0" encoding="UTF-8" standalone="no"?-->
<svg xmlns:dc="http://purl.org/dc/elements/1.1/" xmlns:cc="http://creativecommons.org/ns#" xmlns:rdf="http://www.w3.org/1999/02/22-rdf-syntax-ns#" xmlns:svg="http://www.w3.org/2000/svg" xmlns="http://www.w3.org/2000/svg" id="svg8" version="1.1" viewBox="0 0 210 297" height="297mm" width="210mm" style="">
  <defs id="defs2"></defs>
  <metadata id="metadata5">
    <rdf:rdf>
      <cc:work rdf:about="">
        <dc:format>image/svg+xml</dc:format>
        <dc:type rdf:resource="http://purl.org/dc/dcmitype/StillImage"></dc:type>
        <dc:title></dc:title>
      </cc:work>
    </rdf:rdf>
  </metadata>
  <g id="layer1">
    <g style="font-style:normal;font-variant:normal;font-weight:normal;font-stretch:normal;font-size:38.1px;line-height:0;font-family:'Mekanik LET';-inkscape-font-specification:'Mekanik LET, Normal';font-variant-ligatures:normal;font-variant-caps:normal;font-variant-numeric:normal;font-variant-east-asian:normal;letter-spacing:1.15358px;word-spacing:0px;fill:#000000;fill-opacity:0;stroke:#ffffff;stroke-width:1.7;stroke-miterlimit:4;stroke-dasharray:none;stroke-opacity:1" id="text835" aria-label="WAZZEDO">
      <path d="m 57.605469,137.79297 c -0.03383,1.10832 -0.06056,2.69424 1.219531,3.1166 1.164702,0.31706 2.567942,0.44623 3.633984,-0.22207 0.41105,-0.45876 0.795774,-0.6719 1.224115,-0.0919 1.077773,0.75731 2.548995,0.65786 3.756354,0.29895 1.318835,-0.50785 1.18706,-2.14681 1.179688,-3.30156 0,-6.98737 0,-13.97474 0,-20.96211 -0.492374,0.12091 -1.582849,-0.35629 -1.339844,0.5 0,7.67773 0,15.35547 0,23.0332 -1.159505,0 -2.319011,0 -3.478516,0 0,-7.8444 0,-15.6888 0,-23.5332 -0.498036,0.12176 -1.596399,-0.35682 -1.359375,0.5 0,7.67773 0,15.35547 0,23.0332 -1.158854,0 -2.317708,0 -3.476562,0 0,-7.8444 0,-15.6888 0,-23.5332 -0.498036,0.12176 -1.5964,-0.35682 -1.359375,0.5 0,6.88737 0,13.77474 0,20.66211 z" style="font-style: normal; font-weight: normal; font-stretch: normal; font-size: 38.1px; font-family: &quot;Mekanik LET&quot;; font-variant: normal; fill: rgb(0, 0, 0); fill-opacity: 0; stroke: rgb(255, 255, 255); stroke-width: 1.7; stroke-miterlimit: 4; stroke-opacity: 1;" id="path837" class="ZWxFNnTq_0"></path>
      <path d="m 75.707031,116.45508 c -1.005357,0.0205 -2.332826,0.29544 -2.514466,1.48176 -0.304758,1.73964 -0.07703,3.52644 -0.147643,5.28543 0,5.91484 0,11.82968 0,17.74453 0.49859,-0.12186 1.597773,0.35688 1.361328,-0.5 0,-4.06901 0,-8.13802 0,-12.20703 1.158854,0 2.317708,0 3.476562,0 0,4.23567 10e-7,8.47135 0,12.70703 0.498036,-0.12176 1.5964,0.35681 1.359376,-0.5 -0.01646,-7.30825 0.03281,-14.61873 -0.02444,-21.92559 0.01611,-1.03511 -0.78863,-1.91081 -1.815175,-1.9955 -0.557952,-0.10412 -1.129787,-0.10899 -1.695545,-0.0906 z m -0.771484,0.97851 c 0.982422,0 1.964844,0 2.947265,0 0,3.29818 10e-7,6.59636 0,9.89453 -1.158854,1e-5 -2.317708,1e-5 -3.476562,0 0,-3.29817 0,-6.59635 0,-9.89453 0.176432,0 0.352865,0 0.529297,0 z" style="font-style: normal; font-weight: normal; font-stretch: normal; font-size: 38.1px; font-family: &quot;Mekanik LET&quot;; font-variant: normal; fill: rgb(0, 0, 0); fill-opacity: 0; stroke: rgb(255, 255, 255); stroke-width: 1.7; stroke-miterlimit: 4; stroke-opacity: 1;" id="path839" class="ZWxFNnTq_1"></path>
      <path d="m 83.576172,117.5625 c 1.368489,0 2.736979,0 4.105469,0 -1.45722,7.8014 -2.914032,15.60287 -4.371094,23.4043 1.998698,0 3.997396,0 5.996094,0 0.169797,-0.78035 -0.09794,-1.12316 -0.9,-0.93164 -1.192839,0 -2.385677,0 -3.578516,0 1.457219,-7.8014 2.914031,-15.60287 4.371094,-23.4043 -1.874349,0 -3.748698,0 -5.623047,0 0,0.31055 0,0.62109 0,0.93164 z" style="font-style: normal; font-weight: normal; font-stretch: normal; font-size: 38.1px; font-family: &quot;Mekanik LET&quot;; font-variant: normal; fill: rgb(0, 0, 0); fill-opacity: 0; stroke: rgb(255, 255, 255); stroke-width: 1.7; stroke-miterlimit: 4; stroke-opacity: 1;" id="path841" class="ZWxFNnTq_2"></path>
      <path d="m 93.138672,117.5625 c 1.368489,0 2.736979,0 4.105469,0 -1.45722,7.8014 -2.914032,15.60287 -4.371094,23.4043 1.998698,0 3.997396,0 5.996094,0 0.169797,-0.78035 -0.09794,-1.12316 -0.9,-0.93164 -1.192839,0 -2.385677,0 -3.578516,0 1.457219,-7.8014 2.914031,-15.60287 4.371094,-23.4043 -1.874349,0 -3.748698,0 -5.623047,0 0,0.31055 0,0.62109 0,0.93164 z" style="font-style: normal; font-weight: normal; font-stretch: normal; font-size: 38.1px; font-family: &quot;Mekanik LET&quot;; font-variant: normal; fill: rgb(0, 0, 0); fill-opacity: 0; stroke: rgb(255, 255, 255); stroke-width: 1.7; stroke-miterlimit: 4; stroke-opacity: 1;" id="path843" class="ZWxFNnTq_3"></path>
      <path d="m 102.9043,140.9668 c 1.55078,0 3.10156,0 4.65234,0 0.1698,-0.78035 -0.0979,-1.12316 -0.9,-0.93164 -0.79766,0 -1.59531,0 -2.39297,0 0,-3.92513 0,-7.85026 0,-11.77539 1.09766,0 2.19531,0 3.29297,0 0.1698,-0.78035 -0.0979,-1.12316 -0.9,-0.93165 -0.79766,0 -1.59531,0 -2.39297,0 0,-3.2552 0,-6.51041 0,-9.76562 1.09766,0 2.19531,0 3.29297,0 0.1698,-0.78034 -0.0979,-1.12315 -0.9,-0.93164 -1.25078,0 -2.50156,0 -3.75234,0 0,8.11198 0,16.22396 0,24.33594 z" style="font-style: normal; font-weight: normal; font-stretch: normal; font-size: 38.1px; font-family: &quot;Mekanik LET&quot;; font-variant: normal; fill: rgb(0, 0, 0); fill-opacity: 0; stroke: rgb(255, 255, 255); stroke-width: 1.7; stroke-miterlimit: 4; stroke-opacity: 1;" id="path845" class="ZWxFNnTq_4"></path>
      <path d="m 111.72266,140.9668 c 1.61402,-0.079 3.29004,0.19477 4.85937,-0.26563 0.89247,-0.31613 1.3787,-1.22132 1.30926,-2.14124 0.0612,-6.38868 0.0209,-12.78008 0.02,-19.16963 0.0389,-0.90924 -0.13716,-1.9615 -1.05977,-2.38249 -1.26303,-0.57085 -2.72038,-0.3022 -4.06875,-0.37695 -0.6985,-0.0785 -1.31824,-0.0781 -1.06015,0.8 0,7.84531 0,15.69062 0,23.53594 z m 1.88867,-23.4043 c 0.98307,0 1.96614,0 2.94922,0 0,7.49089 0,14.98177 0,22.47266 -1.15951,0 -2.31901,0 -3.47852,0 0,-7.49089 0,-14.98177 0,-22.47266 0.17643,0 0.35287,0 0.5293,0 z" style="font-style: normal; font-weight: normal; font-stretch: normal; font-size: 38.1px; font-family: &quot;Mekanik LET&quot;; font-variant: normal; fill: rgb(0, 0, 0); fill-opacity: 0; stroke: rgb(255, 255, 255); stroke-width: 1.7; stroke-miterlimit: 4; stroke-opacity: 1;" id="path847" class="ZWxFNnTq_5"></path>
      <path d="m 124.86328,116.45898 c -1.10982,-0.0652 -2.4032,0.54745 -2.48868,1.78115 -0.22142,2.42045 -0.0481,4.86277 -0.10312,7.2919 0.0238,4.54079 -0.0474,9.0854 0.0352,13.62384 0.001,1.07328 0.92581,1.86471 1.95439,1.92093 1.18467,0.10235 2.54668,0.21627 3.569,-0.49868 0.93763,-0.9776 0.54703,-2.48064 0.63867,-3.70273 -0.0164,-6.12024 0.0326,-12.24267 -0.0242,-18.36156 -0.002,-0.9898 -0.74855,-1.85259 -1.73929,-1.95428 -0.60468,-0.1244 -1.22762,-0.12346 -1.842,-0.10057 z m -0.70312,0.97461 c 0.98242,0 1.96484,0 2.94726,0 0,7.57683 0,15.15365 0,22.73047 -1.15885,0 -2.31771,0 -3.47656,0 0,-7.57682 0,-15.15364 0,-22.73047 0.17643,0 0.35286,0 0.5293,0 z" style="font-style: normal; font-weight: normal; font-stretch: normal; font-size: 38.1px; font-family: &quot;Mekanik LET&quot;; font-variant: normal; fill: rgb(0, 0, 0); fill-opacity: 0; stroke: rgb(255, 255, 255); stroke-width: 1.7; stroke-miterlimit: 4; stroke-opacity: 1;" id="path849" class="ZWxFNnTq_6"></path>
    </g>
  </g>
<style data-made-with="vivus-instant">
  .ZWxFNnTq_0{stroke-dasharray:164 166;stroke-dashoffset:165;animation:ZWxFNnTq_draw 806ms linear 2800ms forwards;}
  .ZWxFNnTq_1{stroke-dasharray:112 114;stroke-dashoffset:113;animation:ZWxFNnTq_draw 552ms linear 3606ms forwards;}
  .ZWxFNnTq_2{stroke-dasharray:70 72;stroke-dashoffset:71;animation:ZWxFNnTq_draw 347ms linear 4158ms forwards;}
  .ZWxFNnTq_3{stroke-dasharray:70 72;stroke-dashoffset:71;animation:ZWxFNnTq_draw 347ms linear 4506ms forwards;}
  .ZWxFNnTq_4{stroke-dasharray:71 73;stroke-dashoffset:72;animation:ZWxFNnTq_draw 351ms linear 4853ms forwards;}
  .ZWxFNnTq_5{stroke-dasharray:111 113;stroke-dashoffset:112;animation:ZWxFNnTq_draw 547ms linear 5205ms forwards;}
  .ZWxFNnTq_6{stroke-dasharray:111 113;stroke-dashoffset:112;animation:ZWxFNnTq_draw 547ms linear 5752ms forwards;}
  @keyframes ZWxFNnTq_draw{100%{stroke-dashoffset:0;}}@keyframes ZWxFNnTq_fade{0%{stroke-opacity:1;}94.8051948051948%{stroke-opacity:1;}100%{stroke-opacity:0;}}</style></svg>