<?xml version="1.0" encoding="UTF-8" standalone="no"?>
<svg
   xmlns:dc="http://purl.org/dc/elements/1.1/"
   xmlns:cc="http://creativecommons.org/ns#"
   xmlns:rdf="http://www.w3.org/1999/02/22-rdf-syntax-ns#"
   xmlns:svg="http://www.w3.org/2000/svg"
   xmlns="http://www.w3.org/2000/svg"
   id="Layer_1"
   data-name="Layer 1"
   viewBox="0 0 510 25"
   version="1.1">
  <metadata
     id="metadata18">
    <rdf:RDF>
      <cc:Work
         rdf:about="">
        <dc:format>image/svg+xml</dc:format>
        <dc:type
           rdf:resource="http://purl.org/dc/dcmitype/StillImage" />
        <dc:title>Untitled-1</dc:title>
      </cc:Work>
    </rdf:RDF>
  </metadata>
  <defs
     id="defs9">
    <linearGradient
       id="linear-gradient"
       y1="12.5"
       x2="510"
       y2="12.5"
       gradientUnits="userSpaceOnUse">
      <stop
         offset="0"
         stop-color="aqua"
         id="stop2" />
      <stop
         offset="0.5"
         stop-color="#29abe2"
         id="stop4" />
      <stop
         offset="1"
         stop-color="aqua"
         id="stop6" />
    </linearGradient>
  </defs>
  <title
     id="title11">Untitled-1</title>
  <path
     d="m 0,2.280784 c 21.231336,0 21.231336,20.039431 42.466668,20.039431 21.235332,0 21.230336,-20.039431 42.466664,-20.039431 21.236348,0 21.234348,20.039431 42.466668,20.039431 21.23232,0 21.23132,-20.039431 42.46668,-20.039431 21.23532,0 21.23432,20.039431 42.46664,20.039431 21.23236,0 21.23236,-20.039431 42.46668,-20.039431 21.23432,0 21.23132,20.039431 42.46668,20.039431 21.23532,0 21.23032,-20.039431 42.46664,-20.039431 21.23636,0 21.23436,20.039431 42.46668,20.039431 21.23232,0 21.23132,-20.039431 42.46668,-20.039431 21.23532,0 21.23432,20.039431 42.46664,20.039431 21.23236,0 21.23236,-20.039431 42.46668,-20.039431"
     fill="none"
     stroke-miterlimit="10"
     stroke-width="1.165"
     stroke="url(#linear-gradient)"
     id="path13"
     style="stroke:#ffffff;stroke-width:3.126;stroke-miterlimit:10;stroke-dasharray:none;stroke-opacity:1" />
</svg>
